<svg viewBox="0 0 300 57.01" xmlns="http://www.w3.org/2000/svg" xmlns:xlink="http://www.w3.org/1999/xlink"><linearGradient id="a" gradientTransform="matrix(198.01 0 0 37.62 110135.16 18004.13)" gradientUnits="userSpaceOnUse" x1="-555.99" x2="-554.69" y1="-477.96" y2="-477.96"><stop offset="0" stop-color="#1179a3"/><stop offset="1" stop-color="#53509d"/></linearGradient><path d="m9.57-2.45c5-2.3 10.75-3.4 16.16-1.9 7.65 2.15 13.25 9.1 15 16.7 2.5 10.75-3 22.4-13.1 26.95-8.21 3.7-19.01 2.25-24.46-5.3a17.48 17.48 0 0 1 5.35-25.1 13.38 13.38 0 0 1 12.48-.85 10.31 10.31 0 0 1 6 11 9.47 9.47 0 0 1 -7.11 7.75 7.08 7.08 0 0 1 -6.4-1.9 5 5 0 0 1 -.75-6.35 4.26 4.26 0 0 0 8.26-.1c1.25-5-4.71-6.5-8.41-5.4a8.79 8.79 0 0 0 -6 9.1 11.91 11.91 0 0 0 5.4 9.2 13 13 0 0 0 12.11.9 16 16 0 0 0 8.6-9.4 17.67 17.67 0 0 0 -5.57-19.65 22 22 0 0 0 -21.91-3.2 21.7 21.7 0 0 1 4.35-2.45zm60.36-1.5-2.7 14.95a13 13 0 0 1 9.3-3.8c7.2 0 12.75 5.5 12.75 13.3 0 9.15-7 19.15-17.9 19.15-4.95 0-7.75-2.6-8.65-4.4l-1.9 3.55h-7.1l7.55-42.8h8.65zm4.2 19c-5.75 0-9.2 5.45-9.2 10.3 0 3.9 2.5 6.55 6.2 6.55 5.6 0 9.3-5.45 9.3-10.2.05-4-2.5-6.7-6.3-6.7zm35.05-18.95-7.55 42.75h-8.63l7.53-42.75zm20 11.05c7.81 0 12.41 5 12.41 12.45a17.91 17.91 0 0 1 -.3 3.55l-.5 2.9h-22.11c0 .2-.05.35-.05.55.05 3.2 2.45 5.9 6.5 5.9a8.41 8.41 0 0 0 7.3-4.05l6.81 2.15c-2.85 5.15-7.41 8.95-15.06 8.95s-13.45-5.1-13.45-13.2c.05-9.65 7.8-19.2 18.45-19.2zm-.75 7a9 9 0 0 0 -8.6 6.1h14.51v-.4c.05-2.2-1.2-5.75-5.91-5.75zm39.26-6.9c6.1 0 9.5 3 9.5 9.55a40.94 40.94 0 0 1 -.4 4.6l-3.1 17.55h-8.69l3-16.95a20.68 20.68 0 0 0 .2-2.25c0-3.25-1.7-4.4-4.3-4.4-3.45 0-6.2 2.25-7 7l-3 16.55h-8.65l5.5-30.75h7.05l.5 3.25a12.35 12.35 0 0 1 9.35-4.2zm52.65-11.2-7.55 42.75h-7.1l-.55-3.4a12.93 12.93 0 0 1 -9.6 4.25c-7.25 0-12.75-5.55-12.75-13.5 0-8.85 7-19 17.8-19 4.5 0 7.3 2.25 8.4 4.1l2.75-15.2zm-19.5 19c-5.05 0-9.3 4.75-9.3 10.2 0 3.95 2.6 6.65 6.35 6.65 5.65 0 9.2-5.45 9.2-10.3-.09-4.05-2.55-6.6-6.25-6.6zm37.16-7-5.9 34c-1.2 6.35-6.1 9.65-11 9.65-4.7 0-6.7-1.95-7.4-2.8l4.5-6.25a2.79 2.79 0 0 0 2.4 1c1.7 0 2.75-1.1 3.05-3l5.75-32.55zm-2.55-13.4a4.47 4.47 0 0 1 4.45 4.5 5.3 5.3 0 0 1 -5 5 4.38 4.38 0 0 1 -4.5-4.45 5.25 5.25 0 0 1 5.1-5zm24.85 12.5c7.8 0 12.4 5 12.4 12.45a17.61 17.61 0 0 1 -.3 3.55l-.5 2.9h-22.1c0 .2-.05.35-.05.55.05 3.2 2.45 5.9 6.5 5.9a8.41 8.41 0 0 0 7.3-4.05l6.8 2.15c-2.85 5.15-7.45 8.95-15.05 8.95s-13.46-5.1-13.46-13.2c0-9.65 7.81-19.2 18.46-19.2zm-.75 7a9 9 0 0 0 -8.6 6.1h14.5v-.4a5.47 5.47 0 0 0 -5.9-5.7zm34.6-14-1.4 8h7.25l-1.35 7.6h-7.25l-2.3 13.1a4.85 4.85 0 0 0 -.05.85c0 1.3.65 2 2.1 2a4.36 4.36 0 0 0 2.8-1.05l2.55 6.35c-1.2 1.1-3.9 2.7-8.45 2.7-5 0-7.9-3.25-7.9-7.95a9.36 9.36 0 0 1 .2-2l2.5-14.1h-5.1l1.35-7.65h5.1l1.4-8 8.55.05z" fill="url(#a)" transform="translate(0 5.35)"/></svg>