<svg viewBox="0 0 837.52 270.67" xmlns="http://www.w3.org/2000/svg"><path d="m283.43 270.67h270.67v-270.67h-270.67zm-283.43 0h270.67v-270.67h-270.67zm566.85 0h270.67v-270.67h-270.67z" fill="#e73245"/><path d="m801.56 113.29v-11.99h-27.45v22.81h22.43v20.88h-22.43v24.36h27.45v-15.08h24.36v37.89h-101.69v-22.81h11.99v-68.05h-11.99v-22.81h101.69v34.8zm-138.04 17.02 33.25-29h8.12v-22.81h-51.04v22.81h8.51l-34.03 31.71v-31.71h10.44v-22.81h-60.32v22.81h11.99v68.05h-11.99v22.81h59.93v-22.81h-10.05v-34.03l34.03 34.03h-9.67v22.81h58.77v-22.81h-8.12l-39.83-39.05zm-160.66-29h9.28v35.19l-42.53-58h-40.99v22.81h8.89v68.05h-9.28v22.81h44.08v-22.81h-10.05v-38.67l41.76 61.48h31.71v-90.87h8.89v-22.81h-41.76v22.81zm-97.05 68.05-21.27-68.05h14.31v-22.81h-89.32v22.81h15.08l-22.43 68.05h-9.28v22.81h45.63v-22.81h-10.83l4.64-14.31h31.32l4.25 14.31h-10.83v22.81h58.39v-22.81h-9.67zm-68.44-32.48 10.83-35.96 11.6 35.96zm-88.93 32.48-14.69-33.64c7.35-3.09 18.17-10.83 18.17-25.52 0-20.88-19.72-31.71-42.92-31.71h-81.2v22.81h11.21v68.05h-11.21v22.81h63.41v-22.81h-11.21v-24.75h18.95l18.17 47.56h41.37v-22.81h-10.05zm-60.32-42.15h-7.73v-25.52h7.73c12.76 0 20.11 4.25 20.11 12.76s-7.35 12.76-20.11 12.76zm-175.95-25.9h11.6v68.05h-11.6v22.81h66.12v-22.81h-13.53v-23.59h21.65v-22.81h-21.65v-21.65h28.61v11.6h22.43v-34.41h-103.63z" fill="#fff"/></svg>