<svg viewBox="0 0 149.78 106.59" xmlns="http://www.w3.org/2000/svg"><g transform="translate(-50.33 -71.54)"><path d="m133.45 170.38c-4.32-3.38-8.93-6.38-12.89-10.2q-4.92-4.74-9.84-9.51c-.55-.54-1.71-1.35-.75-2 1.67-1.11 2.64-2.9 4.19-3.95a60.94 60.94 0 0 1 9.21-5.28c5.32-2.41 9.66-6.14 13.94-9.92a6.26 6.26 0 0 0 2.19-5.81c-.64-4.17-4.62-6.13-8.6-6.11a33.23 33.23 0 0 0 -10.11 1.83c-4 1.31-7.89 2.81-11.85 4.18-.65.23-1.62.81-1.74-.53-.18-1.86-1.52-1.85-2.77-1.73a2 2 0 0 0 -2 2.59c.41 2.06-.5 3.1-2.33 3.82a28.94 28.94 0 0 0 -4.45 2.32c-.79.5-1.62 1.36-1.24 2.36a2.79 2.79 0 0 0 2.71 1.61c.88 0 1.72-.82 2.62-1.19 1.36-.56 1.93-.28 1.65 1.39-.57 3.38-.91 6.8-1.44 10.19-1.35 8.72-1.59 17.61-3.9 26.18-.51 1.89.47 2.31 1.85 2.43s3.17.7 3.28-1.7.87-4.86.52-6.61c-.29-5.19 1.42-9.45 1.34-13.9a1.48 1.48 0 0 1 .47-1.12c.59-.3.76.42 1.1.73 4.46 3.93 8.84 8 13.6 11.54a112 112 0 0 1 17.14 15.41c1 1.1 1.74.76 2.43 0s1.89-1.61.59-2.79c-1.6-1.46-3.23-2.91-4.93-4.24m-29.71-23.25c.59-5.47 1.14-10.47 2.09-15.42a2.24 2.24 0 0 1 1.14-1.65 85.55 85.55 0 0 1 22.86-9.33c2.15-.52 5-1.19 6.18 1.09 1.08 2.06-.89 4-2.36 5.61-4.52 5-10.5 7.9-16 11.5a112.27 112.27 0 0 1 -11.39 6.24 18.16 18.16 0 0 0 -2.52 2"/><path d="m199.4 136.19c-.9-1.58-2.43-1.66-3.88-1.31-2 .48-3.92.92-5.85 1.56a75.34 75.34 0 0 1 -11.06 3.12c-.8.13-1.78.3-1.88-.7-.15-1.49-1.18-2.72-.8-4.41s-1.24-2.44-2.46-2.95c-1.37-.58-1.85.66-2 1.71a4 4 0 0 1 -2 2.6 56.61 56.61 0 0 1 -9.35 5.13c-.8.37-1.84 1.44-2.55.19s-1.71-2.67-.44-4.06c1.1-1.21.9-2.27-.29-3s-2.56-.79-3.12 1a3.05 3.05 0 0 1 -1 1.53 45.78 45.78 0 0 1 -7.12 4.72 3.2 3.2 0 0 1 -2.72.12c-2.28-.69-4.57-1.94-7-1a20.11 20.11 0 0 0 -4.64 2.37c-3 2.16-6.19 4.28-5.76 7.94 0 4.09 3.17 6.39 7.21 6.1 5-.35 11.46-3.85 13.1-10.64a2.51 2.51 0 0 1 1.19-1.42l5.52-3.78c.46-.31.95-.71 1.46-.07 1.27 1.61.56 3.41-1.55 3.65a13.32 13.32 0 0 0 -3.79 1.15c-1.53.66-1.59 1.67-.71 3a14.22 14.22 0 0 0 8.61 5.89 4.91 4.91 0 0 0 5-1.52c1.23-1.26-.3-2.29-.45-3.44a5.69 5.69 0 0 0 -.84-1.89 1.8 1.8 0 0 1 .73-2.67c3.13-2.12 6.22-4.3 9.38-6.39.5-.33 1.27-1.58 1.78-.44s1.5 2.53-.15 3.54a15.81 15.81 0 0 1 -3.42 1.57c-2.5.82-3 2.23-1.56 4.57.94 1.56 2.39 2.54 3.65 3.73 1.94 1.83 4.34 2.1 6.79 1.7 1.32-.21 1.79-1.4 1.8-2.71a8.7 8.7 0 0 0 -1-4.44c-.83-1.47-.24-2.07 1.11-2.62 2.64-1.08 5.36-1.94 8-3.06 3.17-1.34 6.61-2.55 10.28-1.62a2.26 2.26 0 0 0 2.3-.78c.63-.76-.1-1.43-.46-2.07m-58.72 7.91a18.48 18.48 0 0 1 -5.54 1.65c1.6-1.86 3.25-2 5.54-1.65m-1.74 6.6a55.93 55.93 0 0 1 -7 1.91c-1.08.25-2.48.47-3.12-.54s.21-2.25.72-3.26a9.16 9.16 0 0 1 1.44-1.66c2.61 3.62 4.49 3.62 11.41.1a5.11 5.11 0 0 1 -3.4 3.45m17-1.44c-.72 0-1.45-.09-2.17-.14 0-.14 0-.28 0-.41.7-.24 1.38-.51 2.09-.7a.65.65 0 0 1 .89.58c.07.56-.32.69-.77.67m18.69-.69c-1.3.3-2.46-.35-3.67-.62a2.11 2.11 0 0 1 -1.37-1.18c0-.15 0-.35.1-.39a5.23 5.23 0 0 1 3.79-.83c1.11.32 1 1.71 1.34 2.68a.39.39 0 0 1 -.19.34"/><path d="m193.58 148.78a6.31 6.31 0 0 0 -.17 12.61 6.31 6.31 0 0 0 .17-12.61m.08 11.37a5.07 5.07 0 1 1 -.21-10.13 5.07 5.07 0 1 1 .21 10.13"/><path d="m194.18 151.71c-3.34-.36-3.34-.36-3.34 3v2.73c0 .47-.1 1.06.68 1 .63-.05.4-.58.5-1 .15-.55-.52-1.46.74-1.57a1.65 1.65 0 0 1 1.79 1.09c.32.63.42 1.57 1.71 1.41-1-2.66-1-2.66-.51-3.31 1.15-1.66.45-3.18-1.57-3.39m-.8 3c-.62-.07-1.46.31-1.4-.91s1-.7 1.53-.77 1.63-.14 1.64.78-1 .87-1.77.9"/><path d="m152 95.38c-3-.9-5.65.25-8.37 1.13-.44.14-.85.71-1.35.34s-.17-1-.06-1.56c.75-3.35 2.13-6.5 3.18-9.75a15.52 15.52 0 0 0 1-4.49c0-1.88-1.44-2.2-2.83-2.52a1.58 1.58 0 0 0 -2.15 1.4c-.7 5.35-3.62 9.64-6.68 13.8-2.56 3.5-5.39 6.87-10.6 5a1.52 1.52 0 0 0 -1 .16c-1.94.83-3.6 2.18-6.09 1.18-1.26-.5-3 .06-4.54.42s-2-.07-2.43-1.41a9.87 9.87 0 0 0 -4.43-5.42c-3.06-2-6.47-2.49-10-2.55a15.07 15.07 0 0 1 -4.75-.42c.56-.38.83-.58 1.12-.74 2.43-1.39 4.93-2.71 6.7-5 1.16-1.5 2.22-3.1 1.42-5.19s-2.39-2.76-4.4-3.06a41.65 41.65 0 0 0 -13.18.68c-1 .18-2.26.62-3 .23s.36-1.6.08-2.5a3.81 3.81 0 0 1 0-1.26c.09-1.19-.21-2.09-1.62-2.19s-2.71-.53-3.27 1.28c-.52 1.66-1.13 3.3-1.57 5a2.45 2.45 0 0 1 -2.06 2c-5.33 1.43-10.62 3-15.92 4.52-1 .3-1.82.84-1.7 2a2.27 2.27 0 0 0 2 2.11 4.07 4.07 0 0 0 2.27-.23c4-1.67 8.26-2.56 12.43-3.72 1.55-.42 2.09-.17 1.9 1.47a224.69 224.69 0 0 1 -4.44 26.31 3 3 0 0 1 -1.81 2.18c-1.68.7-3.39 1.31-5.09 1.94a33.82 33.82 0 0 0 -8.62 4.22c-2 1.52-2 3.49-1.55 5.6.37 1.94 1.61 2.66 3.52 3a42.88 42.88 0 0 0 6.09.27c1.49 0 2.81.35 3.37 1.93a1.93 1.93 0 0 0 2.54 1.46c1.31-.36 2.65-.78 2.61-2.51 0-1.47.82-1.89 2-2.15a60.79 60.79 0 0 0 9.28-2.54 111.58 111.58 0 0 0 18.42-8.89c3.95-2.45 7.8-5.12 10.53-8.91a6 6 0 0 1 4.18-2.85c.19.87-.38 1.29-.69 1.81-2.09 3.56-2 4.9 1.27 8.29 1.82 1.86 5.6 1.65 8.6 0 4.09-2.28 7.08-5.85 10.59-8.81 1.08-.92 2.1-2.55 1.62-3.9-1-3 1.39-3.32 2.88-4.5-.83 3.27-.64 6.68-1.8 9.82-.39 1.07-1.08 2.07-.06 3.1a4.26 4.26 0 0 0 3.6 1.24c1.46-.11 2.58-1 4.09-1.1a19.9 19.9 0 0 0 6.3-1.11 12 12 0 0 0 6.5-6.27c1.67-3.83 0-7.11-4-8.32m-86.12 23.39c-.62 1.9-.26 4.6-1.95 5.54-2.33 1.3-5.24 1.35-8 1.08-.48 0-1-.09-1.13-.72s.35-.89.72-1.19c3-2.44 6.67-3.64 10.24-5.34.1.5.14.58.12.63m11.79-35c.16-.79.82-.92 1.42-1 5.09-.91 10.16-2.05 15.37-2 .58 0 1.41-.26 1.64.47s-.47 1.16-.93 1.54a40.51 40.51 0 0 1 -12.61 7.37c-2 .69-4.13 1.16-6.5 1.81.56-2.86 1.09-5.51 1.61-8.16m12.36 33.58a91.5 91.5 0 0 1 -18.31 6.15c-1.41.31-1.9.23-1.87-1.53.08-4 1.92-6.48 5.71-7.47 1.89-.49 3.53-1.65 5.77-1.46a8.25 8.25 0 0 0 3.72-1.1 34.67 34.67 0 0 1 5.23-2 37.56 37.56 0 0 1 6.42-1.44 5.87 5.87 0 0 0 2.23-1.2c1.3-.95 3.1.33 4.71-.18-3.67 4.83-8.42 7.83-13.61 10.23m15.67-14.66c-7.58 1.87-15.15 3.78-22.73 5.67-3.12.78-6.25 1.53-9.38 2.33-.69.17-1.52.53-1.29-.69a137 137 0 0 1 3.3-15c1.78 2 3.94 1.6 6.12 1.29 6.52-.94 13-2.25 19.66-1.07 3.39.6 5.39 2.38 5.8 5.14.19 1.29-.2 2-1.48 2.28m24.23 3a16.28 16.28 0 0 1 -4.39 3.24 25.12 25.12 0 0 1 -9.69 2.83c-.68 0-1.38-.13-.87-1.48a29.5 29.5 0 0 1 1.58-2.94c.23-.44.64-.83 1.2-.44 3 2.06 5.55-.15 8.19-1a25 25 0 0 0 2.91-1.66c.5-.24 1.11-1 1.65-.34s-.13 1.34-.58 1.83m19.67-2a18.56 18.56 0 0 1 -9.21 4.21c.58-1.45 2.43-1.59 2-2.7-.36-.93-1.78.24-2.91-.39a14.57 14.57 0 0 1 7.76-5.61c1.6-.58 3.9-1.38 4.84.38s-1.2 3.09-2.47 4.11"/></g></svg>