<?xml version="1.0" encoding="UTF-8"?> <svg xmlns="http://www.w3.org/2000/svg" xmlns:xlink="http://www.w3.org/1999/xlink" width="80" height="40" version="1.1" id="Layer_1" x="0px" y="0px" viewBox="0 0 80 40" style="enable-background:new 0 0 80 40;" xml:space="preserve"> <style type="text/css"> .st0{clip-path:url(#SVGID_00000089539556230077765700000017132276092343040684_);} .st1{fill-rule:evenodd;clip-rule:evenodd;fill:#002626;} .st2{fill:#002626;} </style> <g> <defs> <rect id="SVGID_1_" x="0.1" y="0" width="79.2" height="40"></rect> </defs> <clipPath id="SVGID_00000139278141635249743870000011008459945038598534_"> <use xlink:href="#SVGID_1_" style="overflow:visible;"></use> </clipPath> <g style="clip-path:url(#SVGID_00000139278141635249743870000011008459945038598534_);"> <path class="st1" d="M78.9,0.4H0.5v39.2h78.4V0.4z M78,1.3v37.4H40.7V1.3L78,1.3z M9.9,31.3c-2.8,1.2-2.8-1.5-2.8-1.5l0,0 L4.5,10.1C4.4,8.5,5.9,8.5,5.9,8.5l11.7,2.9C20.3,12.1,21,14,21,14l8.6,1.4c1.5,0.2,2.1,1.3,2.1,1.3l3.7,5.7 c0.2,0.2,0.1,0.3,0.1,0.3l-7.9,4.5c-2,1.4-3,1.3-3,1.3c-1.5,0.1-1.8-1.2-1.8-1.2c-0.3-0.6-1.4-0.4-1.4-0.4L9.9,31.3z M11.3,27.5 l-0.7-3.4v0l8.7-1.6c4.4-1,4.6,0.8,4.6,0.8c0.2,0.6,0.5,0.4,0.5,0.4l9-2.6l0.6,0.9c0.2,0.3-0.1,0.4-0.1,0.4 c-4,2.2-7.5,3.2-7.5,3.2c-1.4,0.2-1.9-0.9-1.9-0.9c-0.4-0.6-0.7-0.5-0.7-0.5c-0.8,0-1.9,0.2-1.9,0.2L11.3,27.5z M10.2,22.3 l4.7-0.7l-2.2-7.6l3.3,0.5c0,0,1,0.1,1.6,1.7l1.8,4.8c0,0,3.2-0.3,3.7,0.3l-3.2-7.1c0,0-0.7-1.1-2.5-1.5L13.6,12 c0,0-0.9-0.1-1.1,0.9c0,0-0.1,0.2-0.2-0.1l-0.2-1.1l-4.2-1L10.2,22.3z M23.4,15.8l0.8,1.7l7,0.1c-0.7-1.2-1.1-1.1-1.1-1.1 L23.4,15.8z M25.2,19.4l6.9-0.4l0.6,1l-6.7,1.3L25.2,19.4z"></path> <path class="st2" d="M46,19.4h1.9v-6l3.8,5.7c0,0,0.1,0.4,1.1,0.2c0,0,0.7-0.1,0.7-0.9V9.4h-1.9v6.1l-4-6c0,0-1.3-0.6-1.7,0.4 L46,19.4z"></path> <path class="st2" d="M56.6,13.5h5.1v1.7h-5v2.4h5.5v1.7h-5.7c0,0-1.7-0.1-1.7-1.8V11c0,0,0.2-1.5,1.8-1.6h5.6v1.7h-5.6L56.6,13.5 L56.6,13.5z"></path> <path class="st2" d="M47.9,24.8h5.1v1.7h-5v2.4h5.5v1.7h-5.7c0,0-1.7-0.1-1.7-1.8v-6.6c0,0,0.2-1.5,1.8-1.6h5.6v1.7h-5.6 L47.9,24.8L47.9,24.8z"></path> <path class="st2" d="M63.1,9.4h2v8.4H67V9.5h1.9v8.2h1.8V9.4h2v8.1c0,0,0.1,1.7-1.8,1.8H65c0,0-1.7,0.2-1.9-1.8L63.1,9.4L63.1,9.4 z"></path> <path class="st2" d="M54.6,30.6h2v-8.2l0.2-0.2H61l0.2,0.2v2.1L61,24.8h-3.4l-0.7,1.6h2.4l2.1,4.3h2.2l-2.3-4.2 c0,0,1.5-0.2,1.7-1.6v-2.7c0,0-0.4-1.2-1.6-1.4h-5.2c0,0-1.5,0.2-1.6,1.7L54.6,30.6L54.6,30.6z"></path> <path class="st2" d="M64.4,30.6h2v-8.1l0.1-0.2h4.1l0.2,0.1v2.3h-3.2l-0.8,1.6h4.1v4.3h2.1v-8.3c0,0-0.2-1.7-2.3-1.7H66 c0,0-1.5,0.2-1.6,1.9L64.4,30.6L64.4,30.6z"></path> <path class="st2" d="M70.2,33v-1.1h-0.5v-0.2H71v0.2h-0.5V33H70.2z"></path> <path class="st2" d="M71.1,33v-1.3h0.5l0.3,0.9l0.3-0.9h0.5V33h-0.3V32L72,33h-0.3L71.4,32V33H71.1L71.1,33z"></path> </g> </g> </svg> 