<svg height="249" viewBox="0 0 1000 249" width="1000" xmlns="http://www.w3.org/2000/svg"><g transform="translate(0 -596)"><path d="m-.000005 596.3243v248.00275l1000.000005.67295v-248.6757h-1000.000005z" fill="#1482c2"/><g fill="#fff" transform="matrix(.3252242 0 0 .3252242 -43.834705 846.12303)"><path d="m1364.1877-585.16912-172.1955 254.99437c-17.9096 26.9856-49.3276 43.29755-82.2122 43.29755-53.5475 0-97.8717-43.99826-97.8717-97.0895 0-53.87343 44.3242-97.79021 98.2472-97.79021 5.3449-.68442 12.515-1.43402 17.5171-1.43402 37.1711 0 75.0422 15.59494 100.7723 41.83094l51.4291-77.9421c-40.0051-41.06505-99.3213-67.34994-158.6544-67.34994-110.7609 0-212.21768 91.40232-212.21768 201.93573 0 109.88159 90.74984 199.83359 201.54468 199.83359 53.5801 0 107.1602-22.66725 144.3299-60.24503h118.6167l.704 60.24503h102.9403v-400.28641h-112.9459zm-47.11 252.17522 56.4155-78.57763.704 78.57763h-57.1156z"/><path d="m1674.3631-184.88766h-102.9077v-306.81442h-80.0273v-92.80374l262.9297-.66878v93.47187h-79.9947v306.81455z"/><path d="m2097.3995-585.16912-102.9077.0261-.717 149.44743h-121.5004l-.7691-149.48002h-102.8256v400.28641h103.5908v-158.01894h122.2174v158.01894h102.9077v-400.28641z"/><path d="m2922.0339-585.16912v186.2756l-141.4789-186.2756-93.6504.65183-.704 145.99275c-23.5792-85.03072-104.3404-146.64458-194.3746-146.64458-110.7452 0-201.512 89.91941-201.512 200.45282 0 35.49193 10.7069 71.53792 27.833 102.76039h-101.9456v-303.21321h-104.8619v400.28641h239.7247v-56.00816c37.8711 34.74233 89.3171 56.00816 140.7618 56.00816 90.0342 0 169.3771-60.24503 194.3746-145.29204l.704 145.29204h103.6559v-194.79823l140.7137 194.79823h93.5852l.1304-400.28641h-102.9403zm-430.2053 302.51249c-56.4481 0-102.8907-45.3345-102.8907-102.05967 0-55.94297 46.4426-101.97819 102.8907-101.97819 57.1978 0 103.6404 46.03522 103.6404 101.97819 0 56.72517-46.4426 102.05967-103.6404 102.05967"/><path d="m784.55137-281.94939v-56.02446h110.43629l-.19555-97.72503h-110.24074v-50.98909h121.72852l-.20858-98.47463-234.38102.65182v137.47013c-24.29617-75.09037-94.35183-130.38152-174.37913-137.47013l-177.93288-.65182v400.27011h178.66553c79.29465-7.05601 149.35031-62.31457 173.64648-136.72052v136.72052h234.59221l-.20858-97.0569h-121.51734zm-226.49263-41.81465c-6.40484 26.95301-32.15197 46.03522-60.01754 46.75223h-65.73666v-214.69522h65.73666c27.86557 0 53.6127 19.92958 60.01754 47.51812 6.45308 18.43038 10.02118 39.67991 10.02118 59.47913 0 20.59771-3.5681 41.81465-10.02118 60.94574"/></g></g></svg>