<svg viewBox="0 0 178.03 66.04" xmlns="http://www.w3.org/2000/svg"><g fill="#005cab" transform="translate(-6.94 -6.02)"><path d="m178.07 40.87a3.43 3.43 0 0 1 1-2.43 3.39 3.39 0 0 1 2.43-1 3.43 3.43 0 0 1 2.43 1 3.39 3.39 0 0 1 1 2.43 3.45 3.45 0 0 1 -3.44 3.44 3.45 3.45 0 0 1 -3.45-3.44zm.61 0a2.83 2.83 0 0 0 2.84 2.83 2.83 2.83 0 0 0 2.83-2.83 2.83 2.83 0 0 0 -2.83-2.87 2.83 2.83 0 0 0 -2.83 2.83z"/><g fill-rule="evenodd"><path d="m14.24 17.35c2.5-2.22 5.47-4.05 8.81-4.05a15.89 15.89 0 0 1 16.11 15.85 16.11 16.11 0 1 1 -32.22 0v-23.15h7.3zm8.81 20.9a9.1 9.1 0 1 0 -9.1-9.1 9.09 9.09 0 0 0 9.1 9.1z"/><path d="m52 29.15a16.08 16.08 0 1 1 16.09 16.08 16.08 16.08 0 0 1 -16.09-16.08zm16.08 9.1a9.1 9.1 0 1 0 -9.1-9.1 9.09 9.09 0 0 0 9.1 9.1z"/><path d="m38.84 29.15c0-10.72 6.19-16.08 16.08-16.08h.69v7l-.69-.06c-5.83 0-8.74 4.07-8.74 9.1v15.7h-7.35v-15.66z"/><path d="m113.67 16.24c2.24-1.69 4-3.14 6.82-3.14 7 0 12.61 6.23 12.61 13.92v17.87h-7v-17.89c0-3.81-2.8-6.9-6.25-6.9s-6.22 3.09-6.22 6.9v17.89h-7.63v-2.37a11.73 11.73 0 0 1 -7.79 2.71c-8 0-14.09-6.51-14.09-14.55v-24.59h7.88v7.59h12v6.89h-12v10.8a6.93 6.93 0 0 0 6.9 7.1 7.09 7.09 0 0 0 7.09-7.1v-24.97h7.69v9.84z"/><path d="m140.11 31.91a9.11 9.11 0 0 0 17.4 1.92h7.06a16.09 16.09 0 1 1 .69-4.67 15.74 15.74 0 0 1 -.24 2.76zm17.62-6.21a9.1 9.1 0 0 0 -17.29 0z"/><path d="m165 29.15c0-10.72 6.2-16.08 16.08-16.08h.69v7l-.69-.06c-5.82 0-8.73 4.07-8.73 9.1v15.7h-7.35z"/><path d="m180 38.79h2.24a.94.94 0 0 1 .93.64 1.31 1.31 0 0 1 0 .81 1 1 0 0 1 -.55.64.73.73 0 0 1 .45.56v.9s.06.27.15.33v.15h-.89a1 1 0 0 1 -.11-.38c0-.2 0-.52 0-.81s-.21-.4-.49-.4h-1v1.59h-.73v-4zm.83 1.75h1.14a.54.54 0 0 0 .49-.61c0-.28-.14-.45-.51-.45h-1.12z"/></g><path d="m44.89 66.75-.17-1.47h-.07a4.31 4.31 0 0 1 -3.55 1.72 3.31 3.31 0 0 1 -3.56-3.34c0-2.8 2.5-4.34 7-4.32v-.24a2.39 2.39 0 0 0 -2.64-2.68 5.8 5.8 0 0 0 -3 .86l-.48-1.39a7.15 7.15 0 0 1 3.82-1c3.55 0 4.42 2.42 4.42 4.75v4.36a15.89 15.89 0 0 0 .19 2.79zm-.31-5.93c-2.31 0-4.93.36-4.93 2.61a1.88 1.88 0 0 0 2 2 2.9 2.9 0 0 0 2.81-1.94 2.32 2.32 0 0 0 .12-.68z"/><path d="m52.35 51.79v3.34h3v1.61h-3v6.26c0 1.44.41 2.26 1.59 2.26a4.78 4.78 0 0 0 1.22-.14l.1 1.58a5.16 5.16 0 0 1 -1.88.29 3 3 0 0 1 -2.28-.89 4.32 4.32 0 0 1 -.81-3v-6.36h-1.8v-1.61h1.8v-2.78z"/><path d="m63.37 55.13 2.54 6.87c.26.76.55 1.67.74 2.37.22-.7.46-1.58.75-2.42l2.3-6.82h2.3l-3.17 8.28c-1.51 4-2.54 6-4 7.27a5.67 5.67 0 0 1 -2.59 1.37l-.53-1.77a5.67 5.67 0 0 0 1.85-1 6.4 6.4 0 0 0 1.77-2.35 1.45 1.45 0 0 0 .17-.5 2.09 2.09 0 0 0 -.14-.56l-4.3-10.7z"/><path d="m84.06 60.84c0 4.3-3 6.17-5.79 6.17-3.14 0-5.57-2.3-5.57-6 0-3.88 2.55-6.16 5.76-6.16s5.6 2.44 5.6 5.99zm-9.22.16c0 2.55 1.46 4.47 3.53 4.47s3.53-1.9 3.53-4.52c0-2-1-4.46-3.49-4.46s-3.57 2.26-3.57 4.51z"/><path d="m96.32 63.58c0 1.2 0 2.25.1 3.17h-1.88l-.12-1.9a4.38 4.38 0 0 1 -3.89 2.15c-1.82 0-4-1-4-5.09v-6.78h2.11v6.43c0 2.21.67 3.7 2.59 3.7a3 3 0 0 0 3-3v-7.13h2.11z"/><path d="m99.7 58.75c0-1.36 0-2.54-.09-3.62h1.84l.08 2.28h.09a3.48 3.48 0 0 1 3.22-2.54 2.2 2.2 0 0 1 .6.07v2a3.08 3.08 0 0 0 -.72-.07 3 3 0 0 0 -2.83 2.71 5.69 5.69 0 0 0 -.1 1v6.2h-2.09z"/><path d="m112.11 64.59a5.51 5.51 0 0 0 2.78.84c1.54 0 2.26-.77 2.26-1.73s-.6-1.56-2.16-2.14c-2.09-.74-3.07-1.89-3.07-3.29 0-1.87 1.51-3.4 4-3.4a5.73 5.73 0 0 1 2.85.72l-.53 1.53a4.46 4.46 0 0 0 -2.37-.67c-1.25 0-1.95.72-1.95 1.58s.7 1.4 2.21 2c2 .77 3 1.78 3 3.51 0 2-1.58 3.48-4.34 3.48a6.78 6.78 0 0 1 -3.27-.79z"/><path d="m124.13 51.87a1.24 1.24 0 0 1 -1.34 1.29 1.25 1.25 0 0 1 -1.27-1.29 1.28 1.28 0 0 1 1.32-1.32 1.25 1.25 0 0 1 1.29 1.32zm-2.35 14.88v-11.62h2.11v11.62z"/><path d="m137.31 49.71v14c0 1 0 2.2.1 3h-1.9l-.1-2a4.3 4.3 0 0 1 -4 2.28c-2.81 0-5-2.38-5-5.9 0-3.87 2.37-6.24 5.21-6.24a3.9 3.9 0 0 1 3.5 1.77v-6.91zm-2.11 10.15a3.8 3.8 0 0 0 -.1-.89 3.11 3.11 0 0 0 -3-2.45c-2.18 0-3.48 1.92-3.48 4.49 0 2.35 1.16 4.3 3.44 4.3a3.17 3.17 0 0 0 3.09-2.52 3.82 3.82 0 0 0 .1-.92z"/><path d="m141.87 61.32a3.72 3.72 0 0 0 4 4 7.56 7.56 0 0 0 3.22-.6l.36 1.52a9.5 9.5 0 0 1 -3.86.72c-3.58 0-5.72-2.36-5.72-5.86s2.07-6.26 5.45-6.26c3.79 0 4.8 3.33 4.8 5.47a8.79 8.79 0 0 1 -.07 1zm6.19-1.51c0-1.34-.55-3.43-2.93-3.43-2.13 0-3.07 2-3.24 3.43z"/></g></svg>