<svg viewBox="0 0 492.92 125.58" xmlns="http://www.w3.org/2000/svg"><g transform="translate(-51.18 -358.16)"><path d="m103.65 441.34c-2.22 2.27-5.55 3-7.77 3.4a13.61 13.61 0 0 1 -11.46-4.54c-2.22-3-3.33-6.8-5.55-9.83-3.7-4.53-9.25-7.94-14.79-6.8-11.47 2.27-16.27 16.63-10.36 26.43 9.25 14 30 11.72 40.68 1.89a50.89 50.89 0 0 0 9.25-10.55z" fill="#c92129"/><path d="m491.59 441.34c2.22 2.27 5.55 3 7.4 3.4a13.22 13.22 0 0 0 11.46-4.54c2.22-3 3.33-6.8 5.55-9.83 3.69-4.53 9.24-7.94 15.16-6.8 11.46 2.27 16.66 16.63 10 26.47-9.24 14-29.95 11.72-40.68 1.89a49.71 49.71 0 0 1 -8.89-10.59z" fill="#c92129"/><g fill="#4f2970"><path d="m453.5 366.1h-28.11c-3 0-5.55 3-5.55 6a6.89 6.89 0 0 0 5.55 6.8h28.11c3-.38 5.17-3.4 5.54-6.42-.04-2.98-2.58-6.38-5.54-6.38z"/><path d="m279.31 429.62a26 26 0 0 1 -.74-5.3v-8.69c.37-11 2.22-29.87-11.46-29.87-9.25 0-14.79 8.32-16.28 11-.37-7.56-5.91-12.85-14.42-12.85-5.54 0-8.87 4.54-8.87 4.54s5.54 1.88 5.54 9.45v32.51a8.88 8.88 0 1 0 17.75 0v-23.86c.75-3.78 2.6-7.94 5.92-7.94 3.7 0 4.07 4.92 4.07 4.92v22.69a4.85 4.85 0 0 0 .37 2.26 11.16 11.16 0 0 0 .74 3.4c2.22 4.54 7 7.57 13.31 7.57 5.55 0 8.88-4.54 8.88-4.54a8.63 8.63 0 0 1 -4.81-5.29z"/><path d="m411 429.62a25.51 25.51 0 0 1 -.37-5.3v-56.32a9.65 9.65 0 0 0 -9.62-9.83c-5.18 0-9.24 4.15-9.24 9.83v49.9c0 4.53-.37 9.07 1.48 13.23 2.21 4.92 7.39 8.32 13.68 8.32 5.55 0 8.88-4.54 8.88-4.54a8.63 8.63 0 0 1 -4.81-5.29z"/><path d="m202.39 385.38c-14 0-25.52 12.1-25.52 26.85 0 15.12 11.47 27.22 25.52 27.22s25.52-12.1 25.52-27.22c0-14.75-11.47-26.85-25.52-26.85zm.37 42.72h-.37c-4.81-.37-7-6-7-15.87 0-9.46 3-15.51 7-15.51h.37c4.07 0 7 6 7 15.51.02 9.83-2.19 15.5-7 15.87z"/><path d="m336.26 429.62c-.36-1.89-.36-3.4-.73-5.3v-56.32c0-5.68-4.08-9.83-9.25-9.83s-9.28 4.14-9.28 9.83v26.84c-2.23-3.4-7.4-9.07-15.17-9.07-21.45 0-22.56 40.83-8.13 50.66a18.26 18.26 0 0 0 15.16 2.27c3.33-.75 8.51-4.16 9.24-8.32a1.19 1.19 0 0 1 .37.76 14.7 14.7 0 0 0 13.68 8.32c5.55 0 8.88-4.54 8.88-4.54a8.63 8.63 0 0 1 -4.77-5.3zm-27.73-3.4c-4.81 0-7.4-5.3-7.4-13.61s3.33-13.62 7.4-13.62 7.39 5.3 7.39 13.62-2.58 13.61-7.39 13.61z"/><path d="m385.08 422.81s-3 3.78-13.31 3.78c-10.73 0-12.95-8.69-12.95-8.69 15.54 0 28.48-1.14 28.48-14.37 0-13.61-14.43-18.15-22.56-18.15-14.05 0-24 12.1-24 27.6 0 17.39 12.95 26.47 24 26.47 19.26 0 20.34-16.64 20.34-16.64zm-27.36-13.61c.37-4.16 1.47-9.45 5.17-12.1a4.68 4.68 0 0 1 7 4.16c.37 4.54-2.22 7.19-5.92 7.94-.34 0-6.25.38-6.25 0z"/><path d="m459.78 422.81s-2.95 3.78-13.31 3.78c-10.72 0-12.94-8.69-12.94-8.69 15.53 0 28.47-1.14 28.47-14.37 0-13.61-14.42-18.15-22.55-18.15-14.06 0-24 12.1-24 27.6 0 17.39 12.94 26.47 24 26.47 19.22 0 20.33-16.64 20.33-16.64zm-27.36-13.61c.37-4.16 1.48-9.45 5.17-12.1a4.68 4.68 0 0 1 7 4.16c.37 4.54-2.22 7.19-5.92 7.94-.34 0-6.25.38-6.25 0z"/><path d="m494.92 423.94h-10.73c.74 0 8.51-6.8 11.09-9.45 7-6 19.24-15.12 15.54-26.46a8.87 8.87 0 0 0 -2.59-4.16 6.22 6.22 0 0 1 -3.33 3c-1.11.38-1.85.38-3 .76h-29.9a7.19 7.19 0 0 0 0 14.37h16.64c-7.76 4.91-17 10.21-21.82 18.9-2.59 4.54-5.55 12.1-4.44 17.77 3.7-3.4 13.69-6.81 21.08-5.29a27.23 27.23 0 0 1 8.14 3.78c14.05 9.45 22.56-9.08 15.9-17-.01 0-4.08 3.78-12.58 3.78z"/><path d="m178.35 435.67c-8.5-10.21-11.09-26.85-11.83-38.19-.37-9.45 0-26.09 7-31-2.21-3.39-7-4.53-10.35-4.53-8.14 0-11.84 5.67-14.79 9.83-.74 1.13-14.43 21.17-14.43 21.17s-11.07-18.95-12.55-21.18c-1.85-3-5.55-8.69-11.84-9.46-2.58-.75-10-1.13-13.68 4.54 6.66 5.68 6.66 20.42 5.18 30.25-4.44 29.49-16.27 32.14-16.27 32.14 5.91 17.39 21.45 10.59 25.88-3.4a117.63 117.63 0 0 0 5.18-29.84l17 28 19.6-28c-3.32 49.53 12.58 63.52 26.26 63.52 14.05 0 18.86-13.61 18.86-13.61-7.75-.41-14.04-4.57-19.22-10.24z"/><path d="m221.62 451.55a4.87 4.87 0 0 1 .37 2.27v26.08a4 4 0 0 0 3.7 3.79c2.22.37 4.07-1.52 4.44-3.79v-23.44a15 15 0 0 0 -.74-5.67 7 7 0 0 0 -5.92-3.4 5.21 5.21 0 0 0 -3.7 1.89 2.8 2.8 0 0 1 1.85 2.27z"/><path d="m475 479.53a4.92 4.92 0 0 1 -.37-2.27v-26.09a4.09 4.09 0 0 0 -4.07-3.78c-1.85 0-4.07 1.89-4.07 3.78v23.44a15 15 0 0 0 .74 5.67c.74 1.89 3.33 3.41 5.92 3.41a5.18 5.18 0 0 0 3.69-1.89 2.79 2.79 0 0 1 -1.84-2.27z"/><path d="m330.35 460.62c-4.07 0-6.66 3.78-7.4 4.92v-2.27a3.75 3.75 0 0 0 -3.7-3.78 3.63 3.63 0 0 0 -4.07 3.78v16.63a4 4 0 0 0 3.7 3.79c1.85.37 4.07-1.52 4.07-3.79v-10.2c.37-1.52 1.48-3.41 2.59-3.41 1.85 0 1.85 2.27 1.85 2.27v11.34c.37 1.9 2.22 3.79 4.06 3.79 1.86.37 4.08-1.52 4.08-3.79v-6c0-6.09.73-13.28-5.18-13.28z"/><path d="m432.42 460.62c-4.07 0-6.66 3.78-7.4 4.92v-2.27a3.75 3.75 0 0 0 -3.7-3.78c-2.22-.38-4.06 1.51-4.43 3.78v16.63c.37 1.9 2.21 3.79 4.06 3.79 1.85.37 4.07-1.52 4.07-3.79v-10.2c.37-1.52 1.48-3.41 2.59-3.41 1.85 0 1.85 2.27 1.85 2.27v11.34c0 1.9 2.22 3.79 4.07 3.79 1.85.37 4.06-1.52 4.06-3.79v-6c0-6.09.41-13.28-5.17-13.28z"/><path d="m249.36 460.62c-4.07 0-6.66 3.78-7.4 4.92v-2.27a3.75 3.75 0 0 0 -3.7-3.78c-2.22-.38-4.07 1.51-4.44 3.78v16.63c.37 1.9 2.22 3.79 4.07 3.79 1.85.37 4.07-1.52 4.07-3.79v-10.2c.37-1.52 1.11-3.41 2.59-3.41 1.85 0 1.85 2.27 1.85 2.27v11.34a4.09 4.09 0 0 0 4.06 3.79c1.86.37 4.07-1.52 4.07-3.79v-6c0-6.09.37-13.28-5.17-13.28z"/><path d="m403.57 459.49c-6.29 0-11.46 5.29-11.46 12.1s5.17 12.1 11.46 12.1 11.1-5.3 11.1-12.1-4.81-12.1-11.1-12.1zm0 19.28c-2.22-.38-3.33-3-3.33-7.18s1.48-6.81 3.33-6.81 3.33 2.65 3.33 6.81-1.11 6.8-3.33 7.18z"/><path d="m361 462.89a4.42 4.42 0 0 0 -4.07-4.16 4.47 4.47 0 0 0 -4.43 4.16v.76c-1.11-1.52-3.33-4.16-6.66-4.16-9.62 0-10.35 18.15-3.7 22.68a7.21 7.21 0 0 0 6.66 1.14 9.53 9.53 0 0 0 4.07-2.65 4 4 0 0 0 3.69 3c2.22.37 4.44-1.89 4.44-4.16zm-12.2 14.75c-2.22 0-3.33-2.27-3.33-6.05s1.48-6 3.33-6 3.33 2.27 3.33 6-1.07 6.05-3.29 6.05z"/><path d="m462.74 462.89a4.11 4.11 0 0 0 -3.7-4.16 4.49 4.49 0 0 0 -4.44 4.16v.76c-1.1-1.52-3.32-4.16-6.65-4.16-9.62 0-10.36 18.15-3.7 22.68a7 7 0 0 0 6.66 1.14 8.35 8.35 0 0 0 3.69-2.65c.75 1.51 2.23 3 4.07 3 1.85.37 4.07-1.89 4.07-4.16zm-12.2 14.75c-1.85 0-3-2.27-3-6.05s1.11-6 3-6c2.22 0 3.33 2.27 3.33 6s-1.11 6.05-3.33 6.05z"/><path d="m389.52 465.16a3.75 3.75 0 0 0 -3.7-3.78h-.37a4 4 0 0 0 -3.7 3.78v14.74c0 1.9 1.48 3.79 3.33 3.79h.37a4.07 4.07 0 0 0 4.07-3.79z"/><path d="m389.52 454.57a4.15 4.15 0 0 1 -4.07 4.16c-2.22 0-3.7-1.89-3.7-4.16s1.48-4.16 3.7-4.16a4.15 4.15 0 0 1 4.07 4.16z"/><path d="m308.53 460.24c-2.22 0-3.33 1.89-5.18 4.54v-1.13a4.11 4.11 0 0 0 -3.7-4.16 4.42 4.42 0 0 0 -4.07 4.16v16.25a3.75 3.75 0 0 0 3.7 3.79 3.64 3.64 0 0 0 4.07-3.79v-10.2c.37-1.52.74-3.41 2.22-3.41s-.37 4.16 3.33 4.16c5.54 0 5.91-10.58-.37-10.21z"/><path d="m292.26 476.12s-1.12 1.89-5.92 1.89-5.92-3.78-5.92-3.78c7 0 12.95-.75 12.95-6.8s-6.29-7.94-10-7.94c-6.29 0-10.73 5.29-10.73 12.47 0 7.94 5.92 11.73 10.73 11.73 8.51 0 8.89-7.57 8.89-7.57zm-12.21-6.05c.37-1.89.74-4.15 2.22-5.29a2.18 2.18 0 0 1 3.33 1.89 3.29 3.29 0 0 1 -2.59 3.4c-.37.38-2.96.38-2.96 0z"/><path d="m271.92 479.15s-1.85 4.54-5.92 4.54c-3 0-7-3-7-7.19v-11.34h-1.11c-.74 0-1.48-.38-1.48-1.89a1.7 1.7 0 0 1 1.48-1.89h1.11v-3.38a3.64 3.64 0 0 1 4.07-3.79 4 4 0 0 1 3.7 3.79v3.4h3.33c.74 0 1.85 0 1.85 1.89a1.74 1.74 0 0 1 -1.85 1.89h-3.33v9.45c-.03 3.01 2.56 4.52 5.15 4.52z"/><path d="m378.79 479.15s-2.21 4.54-5.92 4.54a7.35 7.35 0 0 1 -7-7.19c-.37 0-.37-6.43-.37-11.34h-1.11a1.7 1.7 0 0 1 -1.48-1.89 1.74 1.74 0 0 1 1.85-1.89h.74v-3.38c.37-2.27 2.22-4.16 4.44-3.79a4 4 0 0 1 3.7 3.79v3.4h3.32c.37 0 1.48 0 1.48 1.89a1.7 1.7 0 0 1 -1.48 1.89h-3.32v9.45c-.02 3.01 2.57 4.52 5.15 4.52z"/></g></g></svg>