<svg viewBox="0 0 474.1 173.1" xmlns="http://www.w3.org/2000/svg"><path d="m284.6 1.7h-9.6l-35.1 56.3-35.1-56.3h-9.5v169.4h9.5l35.1-56.3 35.1 56.3h9.7l-.1-.1z" fill="#7bb1db"/><path d="m195.3 1.7h-52.1l52 84.7-52 84.7h52.1z" fill="#958437"/><path d="m336.7 1.7h-52.1v169.3l.1.1h52l-52-84.7z" fill="#739833"/><path d="m410.9 1.7h-74.2l-52 84.7 52 84.7v-37.4h87.9c36.9 0 47.9-29 47.9-54.2v-19.9c0-33.2-12-57.9-61.6-57.9zm13 68.3c0 10-4.7 21.6-16.9 21.6h-70.3v-47.9h65.8c15.7 0 21.4 6.5 21.4 18z" fill="#c9d200"/><path d="m195.2 86.4-52-84.7-.1 102.4-88.1-102.4h-52.1v169.4h52.2l-.1-102.4 88.2 102.4z" fill="#ffb500"/><path d="m-80.6-84h637.8v340.2h-637.8z" fill="none"/></svg>