<svg viewBox="0 0 351.8 708.66" xmlns="http://www.w3.org/2000/svg"><path d="m318.64 708.66h-79.4v-158.46c-.07-46.78-33.23-82.07-77.15-82.07h-.09c-43.9.07-77 35.51-77 82.45v158.08h-79.45v-158.08c0-90.58 68.65-161.71 156.29-161.85h.25c87.66 0 156.4 70.85 156.55 161.41z"/><path d="m351.8 54.33-54.34-54.33-51.26 51.26a161.47 161.47 0 0 0 -84.36-23.65c-89.38.14-161.98 72.97-161.84 162.39s72.85 161.8 162.09 161.8h.26c89.38-.14 162-73 161.84-162.35a161 161 0 0 0 -23.62-83.88zm-189.57 224.47h-.14a89 89 0 1 1 .14 0z"/></svg>