<?xml version="1.0" encoding="UTF-8"?> <svg xmlns="http://www.w3.org/2000/svg" width="245" height="73" viewBox="0 0 245 73" fill="none"><path d="M87.0625 27.8558V16.9259H90.1442V27.4951C90.1442 29.5512 91.1117 31.0662 93.5483 31.0662C95.8058 31.0662 96.9525 29.8759 96.9525 27.4951V16.9259H100.034V27.6033C100.034 31.5712 97.4183 33.8438 93.5483 33.8438C89.6783 33.8799 87.0625 31.8598 87.0625 27.8558ZM102.937 21.6153H105.696V23.0943H105.732C106.52 21.94 107.774 21.3989 109.1 21.3989C111.787 21.3989 113.257 23.0943 113.257 25.944V33.6274H110.426V26.6654C110.426 24.8618 109.673 23.8879 108.204 23.8879C106.663 23.8879 105.732 24.8618 105.732 26.8819V33.5913H102.901L102.937 21.6153ZM116.231 16.7456H119.062V19.7757H116.231V16.7456ZM116.231 21.6153H119.062V33.5913H116.231V21.6153ZM122.537 30.7777V23.8879H120.925V21.6153H122.537V18.0081H125.368V21.6514H127.948V23.9239H125.368V30.1284C125.368 31.0302 125.834 31.2827 126.479 31.2827C127.052 31.2827 127.375 31.2466 127.948 31.1744V33.5913C127.303 33.7716 126.264 33.8077 125.87 33.8077C124.007 33.8077 122.537 32.9059 122.537 30.7777ZM129.274 29.0101V26.6654C129.274 23.3107 131.782 21.435 134.721 21.435C137.301 21.435 139.845 22.95 139.845 26.1243V28.433H132.212V29.0823C132.212 30.5973 133.431 31.4991 134.972 31.4991C135.939 31.4991 136.907 30.8498 137.552 29.948L139.737 31.2105C138.806 33.0863 136.942 33.8799 134.828 33.8799C131.926 33.8799 129.274 32.2927 129.274 29.0101ZM137.05 26.449V26.1243C137.05 24.5011 135.903 23.8157 134.757 23.8157C133.538 23.8157 132.248 24.465 132.248 26.2686V26.449H137.05ZM141.887 29.1544V26.2686C141.887 23.0221 144.145 21.3989 146.797 21.3989C148.122 21.3989 149.197 22.0843 149.807 22.8779H149.878V16.9259H152.709V33.6274H149.95V32.2927C149.269 33.2306 147.657 33.9159 146.617 33.9159C143.966 33.8799 141.887 32.2205 141.887 29.1544ZM149.878 29.0823V26.1243C149.878 24.6815 148.732 23.8157 147.262 23.8157C146.08 23.8157 144.79 24.465 144.79 26.1965V29.1544C144.79 30.5973 145.901 31.463 147.37 31.463C148.552 31.427 149.878 30.8137 149.878 29.0823ZM161.739 16.9259H164.749L171.952 28.2887H171.987V16.9259H174.962V33.6274H171.952L164.785 22.2286H164.749V33.6274H161.775L161.739 16.9259ZM177.398 30.2005C177.398 27.8919 179.477 26.5211 181.806 26.5211H184.959V25.439C184.959 24.1765 184.135 23.6354 182.666 23.6354C181.447 23.6354 180.516 24.0682 180.516 24.8258V25.2586H177.972V24.934C177.972 22.3007 180.444 21.435 182.702 21.435C185.353 21.435 187.79 22.3368 187.79 25.2586V31.1023C187.79 31.6434 187.862 33.4109 188.005 33.6634H185.21C185.174 33.4831 185.102 32.7616 185.102 32.5813H185.067C184.027 33.6634 183.132 33.9159 181.591 33.9159C179.082 33.8438 177.398 32.473 177.398 30.2005ZM184.959 29.1905V28.6133H182.164C180.946 28.6133 180.157 29.0462 180.157 30.0923C180.157 31.1023 180.982 31.6073 182.307 31.6073C184.601 31.6073 184.959 30.4891 184.959 29.1905ZM191.158 30.7777V23.8879H189.546V21.6153H191.158V18.0081H193.989V21.6514H196.569V23.9239H193.989V30.1284C193.989 31.0302 194.455 31.2827 195.1 31.2827C195.673 31.2827 195.996 31.2466 196.569 31.1744V33.5913C195.924 33.7716 194.885 33.8077 194.491 33.8077C192.627 33.8077 191.158 32.9059 191.158 30.7777ZM198.468 16.7456H201.299V19.7757H198.468V16.7456ZM198.468 21.6153H201.299V33.5913H198.468V21.6153ZM203.807 29.1905V26.449C203.807 23.2025 206.567 21.435 209.182 21.435C212.049 21.435 214.629 23.3468 214.629 26.4129V28.8658C214.629 32.1123 211.87 33.8799 209.254 33.8799C206.387 33.8799 203.807 32.2566 203.807 29.1905ZM211.762 29.1183V26.1604C211.762 24.7175 210.652 23.8518 209.182 23.8518C208 23.8518 206.71 24.5011 206.71 26.2326V29.1905C206.71 30.6334 207.821 31.4991 209.29 31.4991C210.472 31.4991 211.762 30.8498 211.762 29.1183ZM217.173 21.6153H219.932V23.0943H219.968C220.757 21.94 222.011 21.3989 223.337 21.3989C226.024 21.3989 227.493 23.0943 227.493 25.944V33.6274H224.662V26.6654C224.662 24.8618 223.91 23.8879 222.441 23.8879C220.9 23.8879 219.968 24.8618 219.968 26.8819V33.5913H217.137L217.173 21.6153ZM229.643 31.5352L231.65 30.0201C232.402 30.9941 233.585 31.5712 234.911 31.5712C236.057 31.5712 237.276 31.1744 237.276 30.0923C237.276 29.1544 236.631 28.938 235.054 28.6494L233.513 28.3608C231.578 28.0001 230.252 27.0622 230.252 25.2586C230.252 22.7696 232.438 21.3268 234.982 21.3268C237.132 21.3268 238.637 21.8678 239.641 23.2746L237.598 24.6815C236.917 23.8518 236.093 23.5272 234.947 23.5272C233.836 23.5272 233.012 23.96 233.012 24.8618C233.012 25.6915 234.051 25.8358 235.269 26.0522L237.061 26.4129C239.067 26.8097 240.25 27.964 240.25 29.7676C240.25 32.5452 237.455 33.8438 234.982 33.8438C232.832 33.8799 230.826 33.3027 229.643 31.5352ZM87.0625 53.431V47.4791C87.0625 44.0522 89.6425 41.6354 93.2258 41.6354C96.5583 41.6354 99.0308 43.5472 99.0308 46.3969V47.2987H97.6333V46.6133C97.6333 44.3408 95.9492 42.934 93.1542 42.934C90.4667 42.934 88.5317 44.7015 88.5317 47.443V53.1424C88.5317 55.8478 90.4667 57.5793 93.2617 57.5793C96.0208 57.5793 97.705 56.1364 97.705 53.8638V51.4831H93.0467V50.1484H99.1025V54.0442C99.1025 57.0021 96.7733 58.8779 93.2617 58.8779C89.7858 58.95 87.0625 57.0382 87.0625 53.431ZM102.507 55.8839V41.9239H103.868V55.956C103.868 56.8578 104.37 57.5793 105.552 57.5793C106.018 57.5793 106.448 57.5071 106.842 57.471V58.5171C106.269 58.6975 105.624 58.7336 105.122 58.7336C103.08 58.7336 102.507 57.3268 102.507 55.8839ZM108.562 54.4771V51.3388C108.562 48.3087 110.605 46.7215 113.257 46.7215C116.123 46.7215 117.951 48.3448 117.951 51.3027V54.3328C117.951 57.3628 115.98 58.95 113.292 58.95C110.462 58.95 108.562 57.435 108.562 54.4771ZM116.589 54.3688V51.1945C116.589 49.2827 115.55 47.9119 113.257 47.9119C111.071 47.9119 109.924 49.2105 109.924 51.3027V54.441C109.924 56.425 110.999 57.7957 113.292 57.7957C115.514 57.7596 116.589 56.5692 116.589 54.3688ZM122.251 56.5692H122.179V58.6614H120.889V41.96H122.251V49.0662H122.322C123.075 47.3708 124.723 46.6855 126.049 46.6855C128.486 46.6855 130.134 48.2726 130.134 50.7256V54.5131C130.134 57.6514 127.984 58.95 125.798 58.95C124.293 58.95 122.717 58.0843 122.251 56.5692ZM128.737 54.6935V50.7256C128.737 49.1023 127.59 47.9119 125.619 47.9119C124.007 47.9119 122.251 49.3909 122.251 51.8077V54.1163C122.251 56.3528 123.827 57.7957 125.655 57.7957C127.16 57.7596 128.737 56.8217 128.737 54.6935ZM132.427 55.5592C132.427 52.926 134.828 52.0602 136.727 52.0602H140.132V50.2566C140.132 48.4169 138.913 47.8037 137.193 47.8037C135.76 47.8037 134.219 48.3087 134.219 49.8237V50.1845H132.965V49.8237C132.965 47.5151 135.115 46.6494 137.265 46.6494C139.522 46.6494 141.529 47.4791 141.529 50.0041V55.6674C141.529 56.3528 141.637 58.0843 141.708 58.5893H140.347C140.311 58.1925 140.239 57.0742 140.239 56.7496H140.203C139.236 58.5532 137.695 58.8418 136.262 58.8418C134.147 58.8779 132.427 57.7235 132.427 55.5592ZM140.132 54.4049V53.1063H137.014C135.437 53.1063 133.789 53.5031 133.789 55.4871C133.789 57.0382 135.151 57.7957 136.584 57.7957C138.949 57.8318 140.132 56.4249 140.132 54.4049ZM144.862 55.8839V41.9239H146.223V55.956C146.223 56.8578 146.725 57.5793 147.907 57.5793C148.373 57.5793 148.803 57.5071 149.197 57.471V58.5171C148.624 58.6975 147.979 58.7336 147.477 58.7336C145.435 58.7336 144.862 57.3268 144.862 55.8839ZM156.83 53.431V47.4791C156.83 44.0522 159.41 41.6354 163.029 41.6354C166.362 41.6354 168.834 43.6193 168.834 46.469V47.4069H167.401V46.7215C167.401 44.449 165.717 42.97 162.957 42.97C160.27 42.97 158.299 44.7376 158.299 47.4791V53.1785C158.299 55.8839 160.234 57.6153 163.065 57.6153C165.788 57.6153 167.401 56.1003 167.401 53.8638V53.467H168.834V54.1163C168.834 57.0742 166.433 58.95 163.101 58.95C159.553 58.95 156.83 57.0382 156.83 53.431ZM171.199 54.4771V51.3388C171.199 48.3087 173.242 46.7215 175.893 46.7215C178.76 46.7215 180.587 48.3448 180.587 51.3027V54.3328C180.587 57.3628 178.617 58.95 175.929 58.95C173.098 58.95 171.199 57.435 171.199 54.4771ZM179.226 54.3688V51.1945C179.226 49.2827 178.187 47.9119 175.893 47.9119C173.707 47.9119 172.561 49.2105 172.561 51.3027V54.441C172.561 56.425 173.636 57.7957 175.929 57.7957C178.151 57.7596 179.226 56.5692 179.226 54.3688ZM183.49 46.974H184.78V49.2105H184.816C185.64 47.5512 187.181 46.7215 188.829 46.7215C190.728 46.7215 191.767 47.9119 192.09 49.2827H192.126C192.95 47.6233 194.527 46.7215 196.247 46.7215C198.504 46.7215 199.866 48.2005 199.866 50.2927V58.6614H198.504V51.0502C198.504 48.958 197.501 47.948 195.817 47.948C194.025 47.948 192.412 49.463 192.341 51.5191V58.6614H190.979V50.9781C190.943 48.958 190.012 47.948 188.327 47.948C186.715 47.948 184.816 49.2827 184.816 51.5913V58.6975H183.454L183.49 46.974ZM203.306 46.974H204.596V49.0662H204.632C205.456 47.4069 207.104 46.6855 208.43 46.6855C210.867 46.6855 212.515 48.2366 212.515 50.6534V54.4771C212.515 57.6153 210.365 58.9139 208.215 58.9139C206.71 58.9139 205.205 58.0482 204.703 56.5332H204.632V63.1704H203.27L203.306 46.974ZM211.153 54.6935V50.7616C211.153 49.1384 210.007 47.8759 208.036 47.8759C206.423 47.8759 204.667 49.2466 204.667 51.6995V54.0803C204.667 56.3167 206.244 57.7596 208.072 57.7596C209.577 57.7596 211.153 56.8217 211.153 54.6935ZM214.844 55.5592C214.844 52.926 217.245 52.0602 219.144 52.0602H222.548V50.2566C222.548 48.4169 221.33 47.8037 219.61 47.8037C218.177 47.8037 216.636 48.3087 216.636 49.8237V50.1845H215.382V49.8237C215.382 47.5151 217.532 46.6494 219.682 46.6494C221.939 46.6494 223.946 47.4791 223.946 50.0041V55.6674C223.946 56.3528 224.053 58.0843 224.125 58.5893H222.763C222.727 58.1925 222.656 57.0742 222.656 56.7496H222.62C221.652 58.5532 220.112 58.8418 218.678 58.8418C216.564 58.8779 214.844 57.7235 214.844 55.5592ZM222.548 54.4049V53.1063H219.431C217.854 53.1063 216.206 53.5031 216.206 55.4871C216.206 57.0382 217.567 57.7957 219.001 57.7957C221.366 57.8318 222.548 56.4249 222.548 54.4049ZM226.633 54.2606V51.5552C226.633 48.5252 228.461 46.7215 231.256 46.7215C233.979 46.7215 235.663 48.2726 235.663 50.5813V50.942H234.337V50.473C234.337 49.2827 233.442 47.8759 231.256 47.8759C229.106 47.8759 228.031 49.427 228.031 51.447V54.2606C228.031 56.2807 228.998 57.7596 231.292 57.7596C233.477 57.7596 234.337 56.3889 234.337 55.1624V54.7656H235.663V55.0542C235.663 57.3628 234.015 58.9139 231.256 58.9139C228.389 58.95 226.633 57.2546 226.633 54.2606ZM239.211 56.3167V48.1284H237.061V47.0101H239.211V43.3308H240.572V47.0101H244.012V48.1284H240.572V55.956C240.572 57.2185 241.217 57.6153 242.4 57.6153C243.009 57.6153 243.618 57.5071 244.156 57.3628V58.5532C243.403 58.7696 242.472 58.8418 242.006 58.8418C240.537 58.8418 239.211 58.3007 239.211 56.3167ZM49.4017 40.3728C49.2583 40.2646 49.2225 39.6514 49.2225 39.6514C48.8283 36.5853 48.0758 33.4831 46.8933 30.453C46.8217 30.2726 46.7858 30.1644 46.7858 30.0562C46.7858 29.9119 46.8575 29.7676 47.2158 29.5873C48.7567 28.8658 50.0108 27.964 50.9425 27.0261C51.0858 26.8819 51.1933 26.8097 51.265 26.8097C51.3367 26.8097 51.4083 26.8819 51.5517 27.0983C52.9492 29.5151 53.9883 32.2205 54.705 35.0702C54.7767 35.3949 54.8125 35.6474 54.8125 35.8278C54.8125 36.2245 54.6692 36.5131 54.3108 36.8738C53.3792 37.8117 51.7308 39.1464 50.0108 40.1925C49.9392 40.1925 49.5092 40.445 49.4017 40.3728ZM47.8967 43.9079C47.8967 43.9079 47.8967 43.3668 47.7175 43.2586C47.5383 43.1504 47.1083 43.3308 47.1083 43.3308C44.0983 44.4129 40.8017 44.954 37.3617 45.0622C36.7167 45.0983 36.7525 45.2426 36.7167 45.7837C36.6808 48.8498 36.6092 51.7356 36.5375 54.3688C36.5375 54.3688 36.5017 54.6213 36.6092 54.7296C36.6808 54.8017 36.9675 54.8017 36.9675 54.8017C40.4075 54.5853 43.6683 53.8278 46.6425 52.6013C47.0725 52.4209 47.1442 52.1324 47.2875 51.6274C48.1117 48.3087 47.8967 43.9079 47.8967 43.9079ZM46.5708 28.1805C47.9325 27.459 49.1867 26.5933 49.975 25.7636C50.1542 25.5833 50.2258 25.439 50.2258 25.2586C50.2258 25.0783 50.1542 24.8979 49.975 24.6093C48.1475 22.0482 45.9617 20.0282 43.5967 18.5131C42.9158 18.9821 41.8408 19.4149 40.73 19.6674C42.665 22.0482 44.385 24.7536 45.7825 27.8197C45.9258 28.1083 45.9975 28.2887 46.105 28.3247C46.2483 28.3608 46.4275 28.2526 46.5708 28.1805ZM44.2058 29.1905C44.385 29.1183 44.4925 29.0823 44.5642 28.938C44.6 28.7937 44.4925 28.469 44.4925 28.469C43.1667 25.1865 41.5542 22.1925 39.8342 19.8839C38.9025 20.0642 37.1108 20.1724 36.4658 20.1724C36.5733 23.4911 36.645 26.7736 36.6808 29.948C36.6808 30.2366 36.7167 30.3809 36.8242 30.453C36.8958 30.5251 37.0392 30.5612 37.1825 30.5612C39.3325 30.5252 42.4142 29.8759 44.2058 29.1905ZM46.535 54.0442C46.535 53.972 46.4633 53.972 46.4633 53.972C46.3917 53.972 46.2842 54.0081 46.0333 54.0803C42.2708 55.2706 39.01 55.5592 36.8958 55.5953C36.6092 55.5953 36.5375 55.7035 36.5017 56.0282L36.3225 58.8418C36.3225 58.8418 40.5508 58.95 44.8867 57.1103C45.4958 56.3167 45.9975 55.3789 46.4275 54.3328C46.4633 54.2246 46.4992 54.1524 46.535 54.0442ZM55.3142 38.4971C55.3142 38.4249 55.2425 38.4971 55.2425 38.4971C54.2392 39.5071 52.4117 40.8779 50.2617 41.96C49.5808 42.3207 49.5092 42.5732 49.4733 43.1865C49.5092 46.6855 49.0792 49.3548 48.3267 51.6274C48.3267 51.6274 48.255 51.8077 48.47 51.6995C48.685 51.5913 51.8025 50.0763 53.9525 47.8759C54.6692 47.1544 55.2425 46.0722 55.35 44.9179C55.8158 41.0943 55.3142 38.4971 55.3142 38.4971ZM56.3892 34.0241C57.8225 31.5352 57.8225 29.4791 57.8225 29.4791C57.8225 29.3348 57.8225 29.2266 57.7867 29.1544C57.1417 26.3047 55.6367 23.5993 53.3792 21.1103C53.415 21.3628 53.415 21.5793 53.415 21.8318C53.415 22.6975 53.2358 23.5993 52.8058 24.5372C52.6625 24.8618 52.5908 25.0783 52.5908 25.2586C52.5908 25.439 52.6625 25.5472 52.77 25.7636C52.8058 25.6915 55.0992 28.8298 56.3892 34.0241ZM23.6733 41.0943C23.8883 37.5592 24.8558 33.8438 26.1817 30.3087C26.2175 30.2366 26.2175 30.1644 26.2175 30.1284C26.2175 30.0201 26.1458 29.948 25.9667 29.8759C23.745 28.9019 22.0608 27.5672 20.95 26.1243C20.95 26.1243 20.8783 26.0522 20.95 25.9801C21.0217 25.9079 21.0933 25.9801 21.0933 25.9801C22.3475 27.2065 24.175 28.2165 26.2892 29.0101C26.3967 29.0462 26.4325 29.0462 26.5042 29.0462C26.6117 29.0462 26.6833 28.974 26.8267 28.6855C28.26 25.3668 30.1233 22.2286 32.2375 19.6314C30.4458 19.1985 28.6183 18.2245 28.1883 17.1785C28.1883 17.1785 28.1167 17.0702 28.2242 16.9981C28.3317 16.962 28.4033 17.0702 28.4033 17.0702C30.3742 19.2346 36.1433 19.0903 36.1433 19.0903C38.5442 19.0903 43.525 18.2606 43.525 16.2045C43.525 14.3648 40.8733 13.3909 36.0717 13.3187C21.5233 13.3187 13.7117 26.0161 13.7117 36.0803C13.7117 48.2366 23.96 58.8418 35.8208 58.8418C35.8208 58.6614 35.6775 55.9921 35.6775 55.9921C35.6775 55.7035 35.6058 55.5953 35.2475 55.5592C35.2475 55.5592 30.0875 55.1624 28.4033 54.2967C28.3317 54.2606 28.3675 54.1885 28.475 54.1885C28.475 54.1885 31.9508 54.8017 35.2833 54.8017C35.2833 54.8017 35.6417 54.8378 35.6417 54.4049C35.6417 54.0442 35.4983 45.7837 35.4983 45.7837C35.4625 45.1704 35.3908 45.0622 34.7817 45.0262C31.1983 44.8458 27.6867 44.0883 24.6408 42.7897C24.5692 42.7536 24.5333 42.7536 24.4617 42.7536C24.39 42.7897 24.39 42.934 24.39 42.934C24.1033 46.7576 24.5333 50.473 24.5333 50.473C24.5333 50.5452 24.5333 50.5813 24.4617 50.5813C24.39 50.5813 24.39 50.5091 24.39 50.5091C23.8525 48.453 23.5658 46.2165 23.5658 43.8358C23.5658 43.6554 23.6017 42.6815 23.6017 42.6815C23.6017 42.429 23.4942 42.2486 23.2792 42.1404C21.8458 41.4189 20.5558 40.5171 19.4092 39.6153C19.4092 39.6153 19.3375 39.5432 19.4092 39.471C19.4808 39.435 19.5167 39.471 19.5167 39.471C20.6992 40.2286 22.0608 40.8779 23.4583 41.455H23.6375C23.6375 41.4189 23.6375 41.3107 23.6733 41.0943ZM51.5875 23.2746C51.9817 22.2646 52.0533 20.8578 51.6233 19.8478C51.2292 18.9099 49.975 17.936 49.975 17.936C48.04 16.4209 45.89 15.4831 44.8867 15.0863C45.0658 15.4109 45.1733 15.7356 45.1733 16.0602C45.1733 16.6374 44.8867 17.2145 44.385 17.8278C46.9292 19.3067 49.0433 21.0742 50.9067 23.2386C50.9067 23.2386 51.1933 23.5993 51.3725 23.5993C51.48 23.5632 51.5875 23.2746 51.5875 23.2746ZM57.07 40.0482C57.07 41.5993 56.9267 43.1504 56.64 44.5933C57.8942 42.429 58.8975 39.2546 58.8975 35.5753C58.8975 34.5292 58.8258 33.4831 58.6467 32.4009C58.4317 33.4831 58.0733 34.5652 57.4642 35.5753C57.07 36.2606 56.8908 36.7296 56.9625 37.1985C57.0342 38.7135 57.07 40.0482 57.07 40.0482ZM47.3233 54.2606C46.9292 55.0903 46.4633 55.8839 45.9617 56.6053C48.6492 55.2706 51.695 52.6374 53.7733 49.932C52.1608 51.2306 50.3333 52.3488 48.255 53.2145C47.8608 53.431 47.5025 53.8999 47.3233 54.2606ZM35.4983 32.5813C35.4983 32.1123 35.2833 31.8598 34.8533 31.8237C32.2017 31.7155 29.6575 31.2105 27.4 30.4169C27.2925 30.3809 27.2208 30.3448 27.1492 30.3448C27.0775 30.3448 27.0058 30.3809 26.97 30.5612C24.8917 35.8278 24.4617 41.5272 24.4617 41.5272C24.4258 41.7797 24.4975 41.8518 24.6767 41.9239C24.6767 41.9239 29.0842 43.6193 34.7458 43.6193C34.7458 43.6193 35.14 43.6193 35.2475 43.5111C35.3908 43.3668 35.4267 43.2586 35.3908 42.7897C35.4625 40.0121 35.4983 32.5813 35.4983 32.5813ZM27.615 28.974C27.4717 29.2626 27.5433 29.3708 27.5433 29.3708C27.5792 29.443 27.6867 29.4791 27.6867 29.4791C29.3708 30.0562 32.6317 30.5973 34.925 30.5973C35.1758 30.5973 35.3192 30.5612 35.4267 30.453C35.5342 30.3448 35.57 30.1644 35.6058 29.8759C35.6775 26.7015 35.7492 23.3829 35.9283 20.1724C34.9608 20.1364 33.7425 19.9921 32.9183 19.8117C30.7683 22.5171 29.0125 25.5833 27.615 28.974ZM37.2542 43.5833C38.8308 43.5111 42.88 43.2225 46.965 41.6354C47.5383 41.4189 47.6458 41.1664 47.6458 40.7336C47.6458 40.6254 47.6458 40.5171 47.61 40.3728C47.2158 37.2346 46.4633 34.0963 45.4242 30.958C45.2808 30.5612 45.2092 30.4891 45.1017 30.4891C45.03 30.4891 44.9225 30.5252 44.7792 30.5612C42.5217 31.3187 40.0492 31.7516 37.4333 31.8237C36.9317 31.8598 36.7883 32.1845 36.7883 32.5452C36.7883 34.1684 36.8242 36.7296 36.8242 40.1925C36.8242 41.0582 36.8242 42.2486 36.8242 43.0783C36.8242 43.0783 36.8242 43.3308 36.9317 43.475C36.9317 43.5833 37.075 43.6193 37.2542 43.5833ZM2.7825 51.5913C4.5025 56.2085 8.76666 56.6053 11.6333 59.4189C12.1708 59.96 12.7083 60.465 13.3175 60.7897L13.3533 60.7536C12.6725 60.0322 11.92 59.2386 11.4542 58.3007C9.77 55.5231 10.3792 51.5913 9.08916 48.5973C10.2358 50.2205 11.275 51.9159 11.9558 53.7917C12.995 56.8217 13.3892 60.2486 15.7542 62.5211C13.1742 61.5111 10.1642 61.7276 7.87083 59.8879C5.50583 57.9761 3.24833 54.9821 2.7825 51.5913ZM26.7192 64.8658C27.0775 64.8658 27.3642 64.7576 27.3642 64.7576C25.1425 64.2526 23.2433 63.8558 21.3442 62.2326C18.8358 60.1043 16.9008 57.9761 14.1058 56.2446C14.4642 56.461 16.0408 59.7436 17.3667 61.6915C18.2983 63.0622 19.7675 63.8197 21.0933 64.1444C22.2042 64.433 22.455 64.5412 22.455 64.5412C22.455 64.5412 22.2758 64.6494 21.8458 64.5412C21.8458 64.5412 18.155 63.7837 16.1483 63.7837C8.19333 63.7837 6.115 60.7175 6.115 60.7175C8.48 65.0101 13.3533 66.6334 16.5425 66.6334C21.1292 66.5973 24.5333 64.8658 26.7192 64.8658ZM55.995 66.5973C59.1842 66.5973 64.0575 65.0101 66.4225 60.6815C66.4225 60.6815 64.3442 63.7476 56.3892 63.7476C54.3825 63.7476 50.6917 64.5051 50.6917 64.5051C50.2617 64.6133 50.0825 64.5051 50.0825 64.5051C50.0825 64.5051 50.3333 64.3969 51.4442 64.1083C52.7342 63.7837 54.2392 63.0262 55.1708 61.6554C56.4967 59.7075 58.0733 56.4249 58.4317 56.2085C55.6367 57.94 53.7017 60.1043 51.1933 62.1965C49.2942 63.7837 47.395 64.2165 45.1733 64.7215C45.1733 64.7215 45.46 64.8298 45.8183 64.8298C48.04 64.8658 51.4442 66.5973 55.995 66.5973ZM6.47333 53.7556C7.26166 54.441 8.87416 55.9199 9.16083 56.3528C9.16083 56.3528 8.98166 55.7396 8.8025 54.9821C8.62333 54.2246 8.3725 52.3849 7.62 50.7977C7.04666 49.5352 4.61 45.4951 4.14416 43.2586C4.14416 43.2586 2.38833 50.2566 6.47333 53.7556ZM56.7833 62.5211C59.3633 61.5111 62.3375 61.7276 64.6308 59.8879C67.0317 57.9761 69.325 54.9821 69.7908 51.5913C68.0708 56.2085 63.8067 56.5692 60.9042 59.3829C60.3667 59.924 59.8292 60.429 59.22 60.7536L59.1842 60.7175C59.8292 59.9961 60.6175 59.2025 61.0833 58.2646C62.7675 55.4871 62.1583 51.5552 63.4483 48.5612C62.3017 50.1845 61.2625 51.8799 60.5817 53.7556C59.5425 56.8217 59.1483 60.2125 56.7833 62.5211ZM50.4408 67.5712C46.4633 65.948 42.3425 63.8919 37.5767 64.8658C37.0392 64.9741 36.6092 65.0823 36.1075 65.0823C35.6417 65.0823 35.2117 64.9741 34.6742 64.8658C29.8725 63.8919 25.7517 65.948 21.7742 67.5712C18.8 68.6534 14.93 68.473 12.3142 66.8137C13.6042 68.3288 15.3242 69.2666 17.1158 69.9159C20.4125 71.1424 24.3542 70.3127 27.0775 68.5091C29.4425 67.2827 31.4492 64.8298 34.5308 65.7316C31.3775 67.1023 28.5108 69.0502 25.895 71.5392L27.5075 72.8017C27.5075 72.8017 30.5533 68.6534 36.0717 66.1644C41.5542 68.6534 44.6358 72.8017 44.6358 72.8017L46.2842 71.5392C43.6683 69.0502 40.8017 67.1384 37.6483 65.7316C40.73 64.7937 42.7725 67.2466 45.1017 68.5091C47.8608 70.3127 51.7667 71.1424 55.0992 69.9159C56.8908 69.2666 58.6108 68.3288 59.9008 66.8137C57.285 68.5091 53.415 68.6895 50.4408 67.5712ZM66.1 53.7556C70.185 50.2566 68.465 43.2586 68.465 43.2586C67.9992 45.4951 65.5625 49.5712 64.9892 50.7977C64.2367 52.3849 63.9858 54.2246 63.8067 54.9821C63.6275 55.7396 63.4483 56.3528 63.4483 56.3528C63.6992 55.9199 65.3117 54.441 66.1 53.7556ZM1.6 33.8799C2.81833 33.9881 4.00083 34.0963 5.21916 34.2045C6.18666 34.2767 6.68833 33.9159 6.76 32.9781C6.79583 32.5452 6.76 32.2205 6.58083 31.932C6.36583 31.5712 6.04333 31.3909 5.3625 31.3187C4.21583 31.1744 3.03333 31.0662 1.88666 30.9219C1.74333 31.1744 1.63583 31.427 1.4925 31.6795C1.42083 31.6795 1.31333 31.6795 1.24166 31.6434C1.31333 30.8859 1.42083 30.1284 1.4925 29.3708C1.56416 29.3708 1.67166 29.4069 1.74333 29.4069C1.815 29.6955 1.88666 29.948 1.95833 30.2366C3.06916 30.3809 4.18 30.4891 5.29083 30.6334C6.115 30.7416 6.61666 31.0302 6.93917 31.6073C7.19 32.0763 7.2975 32.6173 7.22583 33.3027C7.0825 34.7456 6.33 35.5031 5.11166 35.3949C3.89333 35.2867 2.71083 35.2145 1.4925 35.1063C1.34916 35.3588 1.24166 35.6113 1.13416 35.8638C1.0625 35.8638 0.954998 35.8638 0.883331 35.8278C0.954998 34.8899 1.02666 33.9881 1.09833 33.0502C1.17 33.0502 1.2775 33.0502 1.34916 33.0863C1.45666 33.3748 1.52833 33.6274 1.6 33.8799ZM3.535 26.7376C4.825 27.1704 6.15083 27.6033 7.44083 28.0362C7.62 27.8558 7.79916 27.6394 7.97833 27.459C8.05 27.4951 8.12166 27.4951 8.22916 27.5312C8.01416 28.1805 7.79916 28.8298 7.58416 29.4791C7.5125 29.443 7.405 29.443 7.33333 29.4069C7.2975 29.1183 7.2975 28.8658 7.26166 28.5773C5.72083 28.0722 4.18 27.5672 2.63916 27.0622C2.46 27.2787 2.28083 27.4951 2.10166 27.7115C2.06583 27.7115 1.95833 27.7115 1.88666 27.6754C2.06583 27.0983 2.245 26.5211 2.46 25.9079C4.0725 25.3308 5.685 24.7536 7.2975 24.2125C6.2225 23.8157 5.11166 23.4189 4.03666 23.0582C3.8575 23.2386 3.67833 23.455 3.49916 23.6714C3.4275 23.6354 3.35583 23.6354 3.24833 23.5993C3.46333 22.9139 3.71416 22.2286 3.965 21.5793C4.03666 21.6153 4.10833 21.6514 4.18 21.6514C4.18 21.94 4.18 22.2286 4.21583 22.5171C5.93583 23.1304 7.65583 23.7797 9.37583 24.3929C9.34 24.5372 9.26833 24.6815 9.2325 24.8258C7.33333 25.4029 5.43416 26.0522 3.535 26.7376ZM12.0275 16.1324L13.3892 17.1063C13.0667 17.936 12.8158 18.441 12.4933 18.9099C11.3825 20.461 9.84166 20.7857 8.30083 19.6674C6.76 18.5853 6.25833 16.9981 7.58416 15.1223C7.87083 14.6895 8.33666 14.2566 8.91 13.7155L9.0175 13.6073L10.2 14.473L9.94916 14.8338L8.76666 14.5813C8.5875 14.6895 8.48 14.7977 8.3725 14.942C7.22583 16.3849 7.58416 17.7195 8.98166 18.7296C10.2358 19.6314 11.5617 19.4149 12.3858 18.2606C12.5292 18.0442 12.565 17.8999 12.565 17.8999L11.3825 17.0702L10.6658 17.5031L10.4508 17.3588L11.9917 15.2306L12.2067 15.3748L12.0275 16.1324ZM14.5 15.4831L11.06 11.9841L10.3075 12.2726L10.1283 12.0923L12.0275 10.2165L12.2067 10.3969L11.8842 11.1544L15.36 14.7255L16.435 13.6434L16.0767 12.453L16.3275 12.1644L17.295 13.3548C17.295 13.3548 15.79 14.7977 14.3208 16.3488L14.1417 16.1684L14.5 15.4831ZM16.1842 10.6494C15.0733 9.02615 15.3242 7.29469 17.0083 6.21252C18.5492 5.23857 20.0542 5.67144 20.95 7.1504C21.9175 8.77364 21.6667 10.5412 20.1258 11.5512C18.7283 12.4891 17.1875 12.0923 16.1842 10.6494ZM17.08 9.81974C18.0117 11.1544 19.1942 11.5873 20.0183 11.0823C20.8067 10.5773 20.8425 9.31473 20.0183 7.90791C19.23 6.60932 18.1192 6.03216 17.1517 6.68146C16.0767 7.33076 16.1483 8.52114 17.08 9.81974ZM23.7092 8.80972L21.7742 4.26463H20.9858L20.8783 4.04819L23.6017 2.89388C24.2467 2.64138 24.6408 2.60531 25.0708 2.7496C25.465 2.89388 25.7158 3.14639 25.8592 3.50711C26.1458 4.26463 25.7517 5.02214 24.7842 5.52715C25.9667 5.09429 26.755 5.34679 27.1133 6.21252C27.2925 6.68146 27.2208 7.18647 26.97 7.58326C26.7192 7.98006 26.325 8.23256 25.5725 8.55721L23.2433 9.6033L23.1358 9.38687L23.7092 8.80972ZM23.745 5.81573L24.1033 5.67144C24.7842 5.38286 25.0708 4.76964 24.7842 4.08427C24.5333 3.39889 23.9958 3.14639 23.315 3.43497L22.8133 3.68747L23.745 5.81573ZM24.82 8.44899L25.1425 8.30471C25.6083 8.12435 25.8233 7.98006 25.9667 7.65541C26.11 7.36683 26.11 7.00611 25.9667 6.68146C25.68 5.92395 25.0708 5.70751 24.2825 6.03216L23.8525 6.21252L24.82 8.44899ZM29.4783 4.95L29.1558 6.78968L29.9083 6.97004L29.9442 7.22254L27.9733 7.69148L27.9375 7.43897L28.5467 7.00611L29.9083 1.01813L30.3383 0.945988L33.42 6.10431L34.1367 6.28467L34.1725 6.53717L31.6283 6.89789L31.5925 6.64539L32.2017 6.21252L31.3058 4.58928L29.4783 4.95ZM29.55 4.51713L31.055 4.22855L30.0158 2.31673L29.55 4.51713ZM35.4267 5.99609L35.4625 1.09028L34.71 0.765628V0.513123C36.1075 0.477051 37.3617 0.477051 37.3617 0.477051V0.729556L36.6092 1.05421L36.5375 6.06823L37.935 6.10431L38.5083 5.02214H38.8667L38.7233 6.57324C38.7233 6.57324 36.4658 6.46503 34.6025 6.53717V6.28467L35.4267 5.99609ZM45.4958 7.51112L46.2483 6.46503L46.6425 6.57324L46.1767 7.98006H46.0333C45.2092 7.94398 44.7433 7.90791 44.2058 7.76362C42.45 7.29469 41.6975 5.92394 42.0917 4.12034C42.5217 2.24459 43.8475 1.34278 46.0692 1.88386C46.6067 1.99208 47.1442 2.28066 47.7892 2.64138L47.395 4.08427L47.0008 4.01212L46.8933 2.71352C46.8933 2.71352 46.6783 2.60531 46.4275 2.53316C44.4925 2.02815 43.5608 2.96603 43.2383 4.44499C42.88 5.96002 43.525 7.11433 44.8508 7.51112C45.1375 7.43898 45.2808 7.47505 45.4958 7.51112ZM56.7117 12.3809L60.8325 10.5051L62.1942 11.8758L62.015 12.0562L61.2267 11.8037L57.8583 15.3027L58.2525 16.0602L58.0733 16.2406C57.1775 15.3388 56.2817 14.473 56.2817 14.473L56.4608 14.2566L57.2133 14.5091L59.9367 11.6233L55.3858 13.6434L55.2067 13.4991L56.5683 8.66543L54.0958 11.8037L54.4542 12.5251L54.275 12.7055L52.555 11.4791L52.7342 11.2987L53.5225 11.5512L56.6042 7.7997L56.2458 7.07825L56.425 6.89789L58.0017 8.0522L56.7117 12.3809ZM61.7283 16.7817L60.1875 17.936L60.3667 18.7296L60.1875 18.8738C59.435 17.8278 58.575 16.7817 58.575 16.7817L58.79 16.6374L59.4708 17.0342L63.2692 14.0402L63.09 13.2827L63.305 13.1384L64.8817 15.1945C65.4192 15.9159 65.5625 16.3488 65.5983 16.8538C65.5983 17.3588 65.3833 17.7917 64.9533 18.1163C64.0575 18.7656 62.9467 18.441 62.1225 17.3227L61.7283 16.7817ZM62.23 16.7817C62.5167 17.1785 62.7317 17.3227 62.9825 17.3949C63.3767 17.467 63.8067 17.431 64.165 17.1424C64.5233 16.8899 64.7383 16.5652 64.7742 16.2406C64.81 15.9159 64.7383 15.6634 64.4875 15.3388L64.1292 14.9059L62.015 16.5652L62.23 16.7817ZM64.1292 20.8939L62.3017 21.0382L62.3375 21.7957L62.1225 21.9039C61.6567 21.0382 61.1192 20.1364 61.1192 20.1364L61.3342 19.9921L61.9075 20.4971L67.9992 20.1364L68.2142 20.6414L64.1292 24.97L64.165 25.7276L63.95 25.8358C63.4483 24.6093 62.9825 23.4911 62.9825 23.4911L63.1975 23.3829L63.7708 23.8518L64.9892 22.5532L64.1292 20.8939ZM64.595 20.8578L65.2758 22.2286L66.8167 20.7135L64.595 20.8578ZM65.4908 29.7316L66.8167 29.8759L66.9242 30.2726L65.4908 30.5612L65.4192 30.453C64.9892 29.7316 64.81 29.2987 64.6667 28.7937C64.165 26.9901 64.9533 25.7276 66.745 25.1143C68.6083 24.5011 70.1492 25.439 70.6508 27.4229C70.7942 27.964 70.8658 28.6133 70.8658 29.3348L69.4325 29.6955L69.325 29.2987L70.3642 28.5773C70.3642 28.433 70.3283 28.2165 70.2925 28.0362C69.8267 26.3769 68.6083 25.7276 67.0675 26.2326C65.5625 26.7376 64.8817 27.7476 65.2758 29.1544C65.3117 29.3708 65.3833 29.5151 65.4908 29.7316ZM71.0808 33.9881L66.1717 34.3488L65.9208 35.3588L65.67 35.3949C65.6342 33.7716 65.4192 32.2927 65.4192 32.2927L65.67 32.2566L66.0642 33.2306L70.9733 32.8698L70.8658 31.6073L69.6117 31.2466L69.5758 30.8859L71.26 30.7416C71.26 30.7416 71.6542 33.4109 71.6542 36.0442L69.97 36.1885L69.9342 35.8278L71.1167 35.2867L71.0808 33.9881ZM48.2908 5.88787C49.115 4.08427 50.7633 3.43497 52.5192 4.37284C54.1675 5.2025 54.5258 6.7536 53.7017 8.26863C52.8058 9.92795 51.1217 10.6133 49.5092 9.78366C48.0042 9.02615 47.5383 7.51112 48.2908 5.88787ZM49.4375 6.21252C48.7567 7.69148 48.9717 8.95401 49.8317 9.38687C50.6558 9.81974 51.7667 9.20651 52.555 7.83577C53.2717 6.5011 53.2 5.23857 52.1608 4.69749C51.0858 4.12034 50.1183 4.76964 49.4375 6.21252ZM49.4017 40.3728C49.2583 40.2646 49.2225 39.6514 49.2225 39.6514C48.8283 36.5853 48.0758 33.4831 46.8933 30.453C46.8217 30.2726 46.7858 30.1644 46.7858 30.0562C46.7858 29.9119 46.8575 29.7676 47.2158 29.5873C48.7567 28.8658 50.0108 27.964 50.9425 27.0261C51.0858 26.8819 51.1933 26.8097 51.265 26.8097C51.3367 26.8097 51.4083 26.8819 51.5517 27.0983C52.9492 29.5151 53.9883 32.2205 54.705 35.0702C54.7767 35.3949 54.8125 35.6474 54.8125 35.8278C54.8125 36.2245 54.6692 36.5131 54.3108 36.8738C53.3792 37.8117 51.7308 39.1464 50.0108 40.1925C49.9392 40.1925 49.5092 40.445 49.4017 40.3728ZM47.8967 43.9079C47.8967 43.9079 47.8967 43.3668 47.7175 43.2586C47.5383 43.1504 47.1083 43.3308 47.1083 43.3308C44.0983 44.4129 40.8017 44.954 37.3617 45.0622C36.7167 45.0983 36.7525 45.2426 36.7167 45.7837C36.6808 48.8498 36.6092 51.7356 36.5375 54.3688C36.5375 54.3688 36.5017 54.6213 36.6092 54.7296C36.6808 54.8017 36.9675 54.8017 36.9675 54.8017C40.4075 54.5853 43.6683 53.8278 46.6425 52.6013C47.0725 52.4209 47.1442 52.1324 47.2875 51.6274C48.1117 48.3087 47.8967 43.9079 47.8967 43.9079ZM46.5708 28.1805C47.9325 27.459 49.1867 26.5933 49.975 25.7636C50.1542 25.5833 50.2258 25.439 50.2258 25.2586C50.2258 25.0783 50.1542 24.8979 49.975 24.6093C48.1475 22.0482 45.9617 20.0282 43.5967 18.5131C42.9158 18.9821 41.8408 19.4149 40.73 19.6674C42.665 22.0482 44.385 24.7536 45.7825 27.8197C45.9258 28.1083 45.9975 28.2887 46.105 28.3247C46.2483 28.3608 46.4275 28.2526 46.5708 28.1805ZM44.2058 29.1905C44.385 29.1183 44.4925 29.0823 44.5642 28.938C44.6 28.7937 44.4925 28.469 44.4925 28.469C43.1667 25.1865 41.5542 22.1925 39.8342 19.8839C38.9025 20.0642 37.1108 20.1724 36.4658 20.1724C36.5733 23.4911 36.645 26.7736 36.6808 29.948C36.6808 30.2366 36.7167 30.3809 36.8242 30.453C36.8958 30.5251 37.0392 30.5612 37.1825 30.5612C39.3325 30.5252 42.4142 29.8759 44.2058 29.1905ZM46.535 54.0442C46.535 53.972 46.4633 53.972 46.4633 53.972C46.3917 53.972 46.2842 54.0081 46.0333 54.0803C42.2708 55.2706 39.01 55.5592 36.8958 55.5953C36.6092 55.5953 36.5375 55.7035 36.5017 56.0282L36.3225 58.8418C36.3225 58.8418 40.5508 58.95 44.8867 57.1103C45.4958 56.3167 45.9975 55.3789 46.4275 54.3328C46.4633 54.2246 46.4992 54.1524 46.535 54.0442ZM55.3142 38.4971C55.3142 38.4249 55.2425 38.4971 55.2425 38.4971C54.2392 39.5071 52.4117 40.8779 50.2617 41.96C49.5808 42.3207 49.5092 42.5732 49.4733 43.1865C49.5092 46.6855 49.0792 49.3548 48.3267 51.6274C48.3267 51.6274 48.255 51.8077 48.47 51.6995C48.685 51.5913 51.8025 50.0763 53.9525 47.8759C54.6692 47.1544 55.2425 46.0722 55.35 44.9179C55.8158 41.0943 55.3142 38.4971 55.3142 38.4971ZM56.3892 34.0241C57.8225 31.5352 57.8225 29.4791 57.8225 29.4791C57.8225 29.3348 57.8225 29.2266 57.7867 29.1544C57.1417 26.3047 55.6367 23.5993 53.3792 21.1103C53.415 21.3628 53.415 21.5793 53.415 21.8318C53.415 22.6975 53.2358 23.5993 52.8058 24.5372C52.6625 24.8618 52.5908 25.0783 52.5908 25.2586C52.5908 25.439 52.6625 25.5472 52.77 25.7636C52.8058 25.6915 55.0992 28.8298 56.3892 34.0241ZM23.6733 41.0943C23.8883 37.5592 24.8558 33.8438 26.1817 30.3087C26.2175 30.2366 26.2175 30.1644 26.2175 30.1284C26.2175 30.0201 26.1458 29.948 25.9667 29.8759C23.745 28.9019 22.0608 27.5672 20.95 26.1243C20.95 26.1243 20.8783 26.0522 20.95 25.9801C21.0217 25.9079 21.0933 25.9801 21.0933 25.9801C22.3475 27.2065 24.175 28.2165 26.2892 29.0101C26.3967 29.0462 26.4325 29.0462 26.5042 29.0462C26.6117 29.0462 26.6833 28.974 26.8267 28.6855C28.26 25.3668 30.1233 22.2286 32.2375 19.6314C30.4458 19.1985 28.6183 18.2245 28.1883 17.1785C28.1883 17.1785 28.1167 17.0702 28.2242 16.9981C28.3317 16.962 28.4033 17.0702 28.4033 17.0702C30.3742 19.2346 36.1433 19.0903 36.1433 19.0903C38.5442 19.0903 43.525 18.2606 43.525 16.2045C43.525 14.3648 40.8733 13.3909 36.0717 13.3187C21.5233 13.3187 13.7117 26.0161 13.7117 36.0803C13.7117 48.2366 23.96 58.8418 35.8208 58.8418C35.8208 58.6614 35.6775 55.9921 35.6775 55.9921C35.6775 55.7035 35.6058 55.5953 35.2475 55.5592C35.2475 55.5592 30.0875 55.1624 28.4033 54.2967C28.3317 54.2606 28.3675 54.1885 28.475 54.1885C28.475 54.1885 31.9508 54.8017 35.2833 54.8017C35.2833 54.8017 35.6417 54.8378 35.6417 54.4049C35.6417 54.0442 35.4983 45.7837 35.4983 45.7837C35.4625 45.1704 35.3908 45.0622 34.7817 45.0262C31.1983 44.8458 27.6867 44.0883 24.6408 42.7897C24.5692 42.7536 24.5333 42.7536 24.4617 42.7536C24.39 42.7897 24.39 42.934 24.39 42.934C24.1033 46.7576 24.5333 50.473 24.5333 50.473C24.5333 50.5452 24.5333 50.5813 24.4617 50.5813C24.39 50.5813 24.39 50.5091 24.39 50.5091C23.8525 48.453 23.5658 46.2165 23.5658 43.8358C23.5658 43.6554 23.6017 42.6815 23.6017 42.6815C23.6017 42.429 23.4942 42.2486 23.2792 42.1404C21.8458 41.4189 20.5558 40.5171 19.4092 39.6153C19.4092 39.6153 19.3375 39.5432 19.4092 39.471C19.4808 39.435 19.5167 39.471 19.5167 39.471C20.6992 40.2286 22.0608 40.8779 23.4583 41.455H23.6375C23.6375 41.4189 23.6375 41.3107 23.6733 41.0943ZM51.5875 23.2746C51.9817 22.2646 52.0533 20.8578 51.6233 19.8478C51.2292 18.9099 49.975 17.936 49.975 17.936C48.04 16.4209 45.89 15.4831 44.8867 15.0863C45.0658 15.4109 45.1733 15.7356 45.1733 16.0602C45.1733 16.6374 44.8867 17.2145 44.385 17.8278C46.9292 19.3067 49.0433 21.0742 50.9067 23.2386C50.9067 23.2386 51.1933 23.5993 51.3725 23.5993C51.48 23.5632 51.5875 23.2746 51.5875 23.2746ZM57.07 40.0482C57.07 41.5993 56.9267 43.1504 56.64 44.5933C57.8942 42.429 58.8975 39.2546 58.8975 35.5753C58.8975 34.5292 58.8258 33.4831 58.6467 32.4009C58.4317 33.4831 58.0733 34.5652 57.4642 35.5753C57.07 36.2606 56.8908 36.7296 56.9625 37.1985C57.0342 38.7135 57.07 40.0482 57.07 40.0482ZM47.3233 54.2606C46.9292 55.0903 46.4633 55.8839 45.9617 56.6053C48.6492 55.2706 51.695 52.6374 53.7733 49.932C52.1608 51.2306 50.3333 52.3488 48.255 53.2145C47.8608 53.431 47.5025 53.8999 47.3233 54.2606ZM35.4983 32.5813C35.4983 32.1123 35.2833 31.8598 34.8533 31.8237C32.2017 31.7155 29.6575 31.2105 27.4 30.4169C27.2925 30.3809 27.2208 30.3448 27.1492 30.3448C27.0775 30.3448 27.0058 30.3809 26.97 30.5612C24.8917 35.8278 24.4617 41.5272 24.4617 41.5272C24.4258 41.7797 24.4975 41.8518 24.6767 41.9239C24.6767 41.9239 29.0842 43.6193 34.7458 43.6193C34.7458 43.6193 35.14 43.6193 35.2475 43.5111C35.3908 43.3668 35.4267 43.2586 35.3908 42.7897C35.4625 40.0121 35.4983 32.5813 35.4983 32.5813ZM27.615 28.974C27.4717 29.2626 27.5433 29.3708 27.5433 29.3708C27.5792 29.443 27.6867 29.4791 27.6867 29.4791C29.3708 30.0562 32.6317 30.5973 34.925 30.5973C35.1758 30.5973 35.3192 30.5612 35.4267 30.453C35.5342 30.3448 35.57 30.1644 35.6058 29.8759C35.6775 26.7015 35.7492 23.3829 35.9283 20.1724C34.9608 20.1364 33.7425 19.9921 32.9183 19.8117C30.7683 22.5171 29.0125 25.5833 27.615 28.974ZM37.2542 43.5833C38.8308 43.5111 42.88 43.2225 46.965 41.6354C47.5383 41.4189 47.6458 41.1664 47.6458 40.7336C47.6458 40.6254 47.6458 40.5171 47.61 40.3728C47.2158 37.2346 46.4633 34.0963 45.4242 30.958C45.2808 30.5612 45.2092 30.4891 45.1017 30.4891C45.03 30.4891 44.9225 30.5252 44.7792 30.5612C42.5217 31.3187 40.0492 31.7516 37.4333 31.8237C36.9317 31.8598 36.7883 32.1845 36.7883 32.5452C36.7883 34.1684 36.8242 36.7296 36.8242 40.1925C36.8242 41.0582 36.8242 42.2486 36.8242 43.0783C36.8242 43.0783 36.8242 43.3308 36.9317 43.475C36.9317 43.5833 37.075 43.6193 37.2542 43.5833ZM2.7825 51.5913C4.5025 56.2085 8.76666 56.6053 11.6333 59.4189C12.1708 59.96 12.7083 60.465 13.3175 60.7897L13.3533 60.7536C12.6725 60.0322 11.92 59.2386 11.4542 58.3007C9.77 55.5231 10.3792 51.5913 9.08916 48.5973C10.2358 50.2205 11.275 51.9159 11.9558 53.7917C12.995 56.8217 13.3892 60.2486 15.7542 62.5211C13.1742 61.5111 10.1642 61.7276 7.87083 59.8879C5.50583 57.9761 3.24833 54.9821 2.7825 51.5913ZM26.7192 64.8658C27.0775 64.8658 27.3642 64.7576 27.3642 64.7576C25.1425 64.2526 23.2433 63.8558 21.3442 62.2326C18.8358 60.1043 16.9008 57.9761 14.1058 56.2446C14.4642 56.461 16.0408 59.7436 17.3667 61.6915C18.2983 63.0622 19.7675 63.8197 21.0933 64.1444C22.2042 64.433 22.455 64.5412 22.455 64.5412C22.455 64.5412 22.2758 64.6494 21.8458 64.5412C21.8458 64.5412 18.155 63.7837 16.1483 63.7837C8.19333 63.7837 6.115 60.7175 6.115 60.7175C8.48 65.0101 13.3533 66.6334 16.5425 66.6334C21.1292 66.5973 24.5333 64.8658 26.7192 64.8658ZM55.995 66.5973C59.1842 66.5973 64.0575 65.0101 66.4225 60.6815C66.4225 60.6815 64.3442 63.7476 56.3892 63.7476C54.3825 63.7476 50.6917 64.5051 50.6917 64.5051C50.2617 64.6133 50.0825 64.5051 50.0825 64.5051C50.0825 64.5051 50.3333 64.3969 51.4442 64.1083C52.7342 63.7837 54.2392 63.0262 55.1708 61.6554C56.4967 59.7075 58.0733 56.4249 58.4317 56.2085C55.6367 57.94 53.7017 60.1043 51.1933 62.1965C49.2942 63.7837 47.395 64.2165 45.1733 64.7215C45.1733 64.7215 45.46 64.8298 45.8183 64.8298C48.04 64.8658 51.4442 66.5973 55.995 66.5973ZM6.47333 53.7556C7.26166 54.441 8.87416 55.9199 9.16083 56.3528C9.16083 56.3528 8.98166 55.7396 8.8025 54.9821C8.62333 54.2246 8.3725 52.3849 7.62 50.7977C7.04666 49.5352 4.61 45.4951 4.14416 43.2586C4.14416 43.2586 2.38833 50.2566 6.47333 53.7556ZM56.7833 62.5211C59.3633 61.5111 62.3375 61.7276 64.6308 59.8879C67.0317 57.9761 69.325 54.9821 69.7908 51.5913C68.0708 56.2085 63.8067 56.5692 60.9042 59.3829C60.3667 59.924 59.8292 60.429 59.22 60.7536L59.1842 60.7175C59.8292 59.9961 60.6175 59.2025 61.0833 58.2646C62.7675 55.4871 62.1583 51.5552 63.4483 48.5612C62.3017 50.1845 61.2625 51.8799 60.5817 53.7556C59.5425 56.8217 59.1483 60.2125 56.7833 62.5211ZM50.4408 67.5712C46.4633 65.948 42.3425 63.8919 37.5767 64.8658C37.0392 64.9741 36.6092 65.0823 36.1075 65.0823C35.6417 65.0823 35.2117 64.9741 34.6742 64.8658C29.8725 63.8919 25.7517 65.948 21.7742 67.5712C18.8 68.6534 14.93 68.473 12.3142 66.8137C13.6042 68.3288 15.3242 69.2666 17.1158 69.9159C20.4125 71.1424 24.3542 70.3127 27.0775 68.5091C29.4425 67.2827 31.4492 64.8298 34.5308 65.7316C31.3775 67.1023 28.5108 69.0502 25.895 71.5392L27.5075 72.8017C27.5075 72.8017 30.5533 68.6534 36.0717 66.1644C41.5542 68.6534 44.6358 72.8017 44.6358 72.8017L46.2842 71.5392C43.6683 69.0502 40.8017 67.1384 37.6483 65.7316C40.73 64.7937 42.7725 67.2466 45.1017 68.5091C47.8608 70.3127 51.7667 71.1424 55.0992 69.9159C56.8908 69.2666 58.6108 68.3288 59.9008 66.8137C57.285 68.5091 53.415 68.6895 50.4408 67.5712ZM66.1 53.7556C70.185 50.2566 68.465 43.2586 68.465 43.2586C67.9992 45.4951 65.5625 49.5712 64.9892 50.7977C64.2367 52.3849 63.9858 54.2246 63.8067 54.9821C63.6275 55.7396 63.4483 56.3528 63.4483 56.3528C63.6992 55.9199 65.3117 54.441 66.1 53.7556ZM1.6 33.8799C2.81833 33.9881 4.00083 34.0963 5.21916 34.2045C6.18666 34.2767 6.68833 33.9159 6.76 32.9781C6.79583 32.5452 6.76 32.2205 6.58083 31.932C6.36583 31.5712 6.04333 31.3909 5.3625 31.3187C4.21583 31.1744 3.03333 31.0662 1.88666 30.9219C1.74333 31.1744 1.63583 31.427 1.4925 31.6795C1.42083 31.6795 1.31333 31.6795 1.24166 31.6434C1.31333 30.8859 1.42083 30.1284 1.4925 29.3708C1.56416 29.3708 1.67166 29.4069 1.74333 29.4069C1.815 29.6955 1.88666 29.948 1.95833 30.2366C3.06916 30.3809 4.18 30.4891 5.29083 30.6334C6.115 30.7416 6.61666 31.0302 6.93917 31.6073C7.19 32.0763 7.2975 32.6173 7.22583 33.3027C7.0825 34.7456 6.33 35.5031 5.11166 35.3949C3.89333 35.2867 2.71083 35.2145 1.4925 35.1063C1.34916 35.3588 1.24166 35.6113 1.13416 35.8638C1.0625 35.8638 0.954998 35.8638 0.883331 35.8278C0.954998 34.8899 1.02666 33.9881 1.09833 33.0502C1.17 33.0502 1.2775 33.0502 1.34916 33.0863C1.45666 33.3748 1.52833 33.6274 1.6 33.8799ZM3.535 26.7376C4.825 27.1704 6.15083 27.6033 7.44083 28.0362C7.62 27.8558 7.79916 27.6394 7.97833 27.459C8.05 27.4951 8.12166 27.4951 8.22916 27.5312C8.01416 28.1805 7.79916 28.8298 7.58416 29.4791C7.5125 29.443 7.405 29.443 7.33333 29.4069C7.2975 29.1183 7.2975 28.8658 7.26166 28.5773C5.72083 28.0722 4.18 27.5672 2.63916 27.0622C2.46 27.2787 2.28083 27.4951 2.10166 27.7115C2.06583 27.7115 1.95833 27.7115 1.88666 27.6754C2.06583 27.0983 2.245 26.5211 2.46 25.9079C4.0725 25.3308 5.685 24.7536 7.2975 24.2125C6.2225 23.8157 5.11166 23.4189 4.03666 23.0582C3.8575 23.2386 3.67833 23.455 3.49916 23.6714C3.4275 23.6354 3.35583 23.6354 3.24833 23.5993C3.46333 22.9139 3.71416 22.2286 3.965 21.5793C4.03666 21.6153 4.10833 21.6514 4.18 21.6514C4.18 21.94 4.18 22.2286 4.21583 22.5171C5.93583 23.1304 7.65583 23.7797 9.37583 24.3929C9.34 24.5372 9.26833 24.6815 9.2325 24.8258C7.33333 25.4029 5.43416 26.0522 3.535 26.7376ZM12.0275 16.1324L13.3892 17.1063C13.0667 17.936 12.8158 18.441 12.4933 18.9099C11.3825 20.461 9.84166 20.7857 8.30083 19.6674C6.76 18.5853 6.25833 16.9981 7.58416 15.1223C7.87083 14.6895 8.33666 14.2566 8.91 13.7155L9.0175 13.6073L10.2 14.473L9.94916 14.8338L8.76666 14.5813C8.5875 14.6895 8.48 14.7977 8.3725 14.942C7.22583 16.3849 7.58416 17.7195 8.98166 18.7296C10.2358 19.6314 11.5617 19.4149 12.3858 18.2606C12.5292 18.0442 12.565 17.8999 12.565 17.8999L11.3825 17.0702L10.6658 17.5031L10.4508 17.3588L11.9917 15.2306L12.2067 15.3748L12.0275 16.1324ZM14.5 15.4831L11.06 11.9841L10.3075 12.2726L10.1283 12.0923L12.0275 10.2165L12.2067 10.3969L11.8842 11.1544L15.36 14.7255L16.435 13.6434L16.0767 12.453L16.3275 12.1644L17.295 13.3548C17.295 13.3548 15.79 14.7977 14.3208 16.3488L14.1417 16.1684L14.5 15.4831ZM16.1842 10.6494C15.0733 9.02615 15.3242 7.29469 17.0083 6.21252C18.5492 5.23857 20.0542 5.67144 20.95 7.1504C21.9175 8.77364 21.6667 10.5412 20.1258 11.5512C18.7283 12.4891 17.1875 12.0923 16.1842 10.6494ZM17.08 9.81974C18.0117 11.1544 19.1942 11.5873 20.0183 11.0823C20.8067 10.5773 20.8425 9.31473 20.0183 7.90791C19.23 6.60932 18.1192 6.03216 17.1517 6.68146C16.0767 7.33076 16.1483 8.52114 17.08 9.81974ZM23.7092 8.80972L21.7742 4.26463H20.9858L20.8783 4.04819L23.6017 2.89388C24.2467 2.64138 24.6408 2.60531 25.0708 2.7496C25.465 2.89388 25.7158 3.14639 25.8592 3.50711C26.1458 4.26463 25.7517 5.02214 24.7842 5.52715C25.9667 5.09429 26.755 5.34679 27.1133 6.21252C27.2925 6.68146 27.2208 7.18647 26.97 7.58326C26.7192 7.98006 26.325 8.23256 25.5725 8.55721L23.2433 9.6033L23.1358 9.38687L23.7092 8.80972ZM23.745 5.81573L24.1033 5.67144C24.7842 5.38286 25.0708 4.76964 24.7842 4.08427C24.5333 3.39889 23.9958 3.14639 23.315 3.43497L22.8133 3.68747L23.745 5.81573ZM24.82 8.44899L25.1425 8.30471C25.6083 8.12435 25.8233 7.98006 25.9667 7.65541C26.11 7.36683 26.11 7.00611 25.9667 6.68146C25.68 5.92395 25.0708 5.70751 24.2825 6.03216L23.8525 6.21252L24.82 8.44899ZM29.4783 4.95L29.1558 6.78968L29.9083 6.97004L29.9442 7.22254L27.9733 7.69148L27.9375 7.43897L28.5467 7.00611L29.9083 1.01813L30.3383 0.945988L33.42 6.10431L34.1367 6.28467L34.1725 6.53717L31.6283 6.89789L31.5925 6.64539L32.2017 6.21252L31.3058 4.58928L29.4783 4.95ZM29.55 4.51713L31.055 4.22855L30.0158 2.31673L29.55 4.51713ZM35.4267 5.99609L35.4625 1.09028L34.71 0.765628V0.513123C36.1075 0.477051 37.3617 0.477051 37.3617 0.477051V0.729556L36.6092 1.05421L36.5375 6.06823L37.935 6.10431L38.5083 5.02214H38.8667L38.7233 6.57324C38.7233 6.57324 36.4658 6.46503 34.6025 6.53717V6.28467L35.4267 5.99609ZM45.4958 7.51112L46.2483 6.46503L46.6425 6.57324L46.1767 7.98006H46.0333C45.2092 7.94398 44.7433 7.90791 44.2058 7.76362C42.45 7.29469 41.6975 5.92394 42.0917 4.12034C42.5217 2.24459 43.8475 1.34278 46.0692 1.88386C46.6067 1.99208 47.1442 2.28066 47.7892 2.64138L47.395 4.08427L47.0008 4.01212L46.8933 2.71352C46.8933 2.71352 46.6783 2.60531 46.4275 2.53316C44.4925 2.02815 43.5608 2.96603 43.2383 4.44499C42.88 5.96002 43.525 7.11433 44.8508 7.51112C45.1375 7.43898 45.2808 7.47505 45.4958 7.51112ZM56.7117 12.3809L60.8325 10.5051L62.1942 11.8758L62.015 12.0562L61.2267 11.8037L57.8583 15.3027L58.2525 16.0602L58.0733 16.2406C57.1775 15.3388 56.2817 14.473 56.2817 14.473L56.4608 14.2566L57.2133 14.5091L59.9367 11.6233L55.3858 13.6434L55.2067 13.4991L56.5683 8.66543L54.0958 11.8037L54.4542 12.5251L54.275 12.7055L52.555 11.4791L52.7342 11.2987L53.5225 11.5512L56.6042 7.7997L56.2458 7.07825L56.425 6.89789L58.0017 8.0522L56.7117 12.3809ZM61.7283 16.7817L60.1875 17.936L60.3667 18.7296L60.1875 18.8738C59.435 17.8278 58.575 16.7817 58.575 16.7817L58.79 16.6374L59.4708 17.0342L63.2692 14.0402L63.09 13.2827L63.305 13.1384L64.8817 15.1945C65.4192 15.9159 65.5625 16.3488 65.5983 16.8538C65.5983 17.3588 65.3833 17.7917 64.9533 18.1163C64.0575 18.7656 62.9467 18.441 62.1225 17.3227L61.7283 16.7817ZM62.23 16.7817C62.5167 17.1785 62.7317 17.3227 62.9825 17.3949C63.3767 17.467 63.8067 17.431 64.165 17.1424C64.5233 16.8899 64.7383 16.5652 64.7742 16.2406C64.81 15.9159 64.7383 15.6634 64.4875 15.3388L64.1292 14.9059L62.015 16.5652L62.23 16.7817ZM64.1292 20.8939L62.3017 21.0382L62.3375 21.7957L62.1225 21.9039C61.6567 21.0382 61.1192 20.1364 61.1192 20.1364L61.3342 19.9921L61.9075 20.4971L67.9992 20.1364L68.2142 20.6414L64.1292 24.97L64.165 25.7276L63.95 25.8358C63.4483 24.6093 62.9825 23.4911 62.9825 23.4911L63.1975 23.3829L63.7708 23.8518L64.9892 22.5532L64.1292 20.8939ZM64.595 20.8578L65.2758 22.2286L66.8167 20.7135L64.595 20.8578ZM65.4908 29.7316L66.8167 29.8759L66.9242 30.2726L65.4908 30.5612L65.4192 30.453C64.9892 29.7316 64.81 29.2987 64.6667 28.7937C64.165 26.9901 64.9533 25.7276 66.745 25.1143C68.6083 24.5011 70.1492 25.439 70.6508 27.4229C70.7942 27.964 70.8658 28.6133 70.8658 29.3348L69.4325 29.6955L69.325 29.2987L70.3642 28.5773C70.3642 28.433 70.3283 28.2165 70.2925 28.0362C69.8267 26.3769 68.6083 25.7276 67.0675 26.2326C65.5625 26.7376 64.8817 27.7476 65.2758 29.1544C65.3117 29.3708 65.3833 29.5151 65.4908 29.7316ZM71.0808 33.9881L66.1717 34.3488L65.9208 35.3588L65.67 35.3949C65.6342 33.7716 65.4192 32.2927 65.4192 32.2927L65.67 32.2566L66.0642 33.2306L70.9733 32.8698L70.8658 31.6073L69.6117 31.2466L69.5758 30.8859L71.26 30.7416C71.26 30.7416 71.6542 33.4109 71.6542 36.0442L69.97 36.1885L69.9342 35.8278L71.1167 35.2867L71.0808 33.9881ZM48.2908 5.88787C49.115 4.08427 50.7633 3.43497 52.5192 4.37284C54.1675 5.2025 54.5258 6.7536 53.7017 8.26863C52.8058 9.92795 51.1217 10.6133 49.5092 9.78366C48.0042 9.02615 47.5383 7.51112 48.2908 5.88787ZM49.4375 6.21252C48.7567 7.69148 48.9717 8.95401 49.8317 9.38687C50.6558 9.81974 51.7667 9.20651 52.555 7.83577C53.2717 6.5011 53.2 5.23857 52.1608 4.69749C51.0858 4.12034 50.1183 4.76964 49.4375 6.21252Z" fill="#002626"></path></svg> 