<svg viewBox="0 0 510.73 664.06" xmlns="http://www.w3.org/2000/svg"><path d="m261.11 1.85-5.74-1.85-5.74 1.85-233.37 75.09-16.26 5.23 3.71 16.67c.17.77 17.23 78.52 17.23 158.11 0 50.51-3.2 94.54-5.77 129.92-1.59 21.94-2.85 39.27-2.85 51.93 0 31.5 3 69.04 38.82 115.99 23.38 30.66 66.02 57.51 123.29 77.65 5.41 1.9 11.96 4.01 18.9 6.24 18.29 5.89 41.06 13.22 52.63 19.92l9.4 5.45 9.4-5.45c11.57-6.71 34.34-14.04 52.64-19.92 6.94-2.23 13.49-4.34 18.9-6.24 57.27-20.15 99.91-47 123.29-77.65 35.82-46.96 38.82-84.49 38.82-115.99 0-12.65-1.26-29.99-2.85-51.93-2.57-35.38-5.77-79.4-5.77-129.92 0-79.58 17.06-157.33 17.23-158.11l3.7-16.67-16.25-5.23z"/><g fill="#f2b64a"><path d="m264.51 203.8v.33s.06 70.71.06 70.71 72.76 1.47 110.96 5.74h.08s0-70.03 0-70.03l-27.18-2.46h-.15s27.25-36.22 27.25-36.22l.08-.11v-58.4l-51.89 64.43-59.16-102.35v.47s-.06 77.16-.06 77.16l30.32 51.56h-.28s-30.04-.84-30.04-.84z"/><path d="m168.58 347.63.03.05 20.13 37.85 12.69 4.81 25.59-40.04.08-.13v-11.13l-28.74 6.61-22.66-15.92z"/><path d="m189.13 294.37-7.02 18.21h.04s34.87-.98 34.87-.98l32.62 16.1 1.96 59.07c10.23 0 12.45-5.18 12.86-6.57v-.02c.07-.21.09-.33.09-.33s13.75 5.95 19.36 4.58c5.61-1.35 8.31-10.01 8.31-10.01l16.35 19.05v32.41l-.08-.08-29.32-28.56-24.31 11.6-24.19-11.6-29.47 28.71v35.58l15.76-17.86 37.9-15.84 38.02 15.84 15.76 17.86 24.55-31.05.02-.03 10.44-51.28-22.53 6.31-.11.03 20.03-37.66.12-.23-7.12-17.9-22.65 15.92-28.73-6.61v11.13l-.08.08-6.63 6.61-15.72-28.93-.12-.23 32.62-16.1 34.7.98h.21s-7.02-18.2-7.02-18.2-33.03-4.07-65.79-4.07-65.7 4.07-65.7 4.07z"/><path d="m288.69 326.95v2.39l14.37 3.68 8.7-7.21.22-.18-2.17-2.41-21.12 3.42z"/><path d="m134.7 210.58v70.04c37.7-4.22 109.18-5.71 110.96-5.75h.08s.06-71.05.06-71.05l-30.19.84h-.11s30.22-51.4 30.22-51.4l.08-.14-.06-77.63-59.14 102.35-51.91-64.45v58.42l27.36 36.3-.31.03-27.05 2.45z"/><path d="m123.48 360.45-13.64 64.98 145.07 145.07 145.85-145.84.13-.13-14.12-64.17.01.78 1.05 56.27-.09.08-82.98 82.97v-14.65l-18.23-25.86-31.68-12.85-31.55 12.85-18.23 25.86v.21 14.44l-.09-.08-83.21-83.22 1.8-57.13z"/><path d="m221.05 329.36.08-.02v-2.7l-21.12-3.42-2.17 2.41.12.1 8.81 7.29z"/><path d="m353.68 118.76.37-.47-37.22 17.38.13.22 9.63 16.54z"/><path d="m193.32 135.98.17-.29-37.2-17.37.47.58 26.97 33.55z"/></g></svg>